<svg width="351" height="454" viewBox="0 0 351 454" fill="none" xmlns="http://www.w3.org/2000/svg">
<g opacity="0.72">
<mask id="mask0_165_1947" style="mask-type:alpha" maskUnits="userSpaceOnUse" x="100" y="340" width="100" height="100">
<circle cx="150" cy="390" r="50" fill="#C4C4C4"/>
</mask>
<g mask="url(#mask0_165_1947)">
<path d="M109.699 366.732L150 343.464L190.301 366.732V413.268L150 436.536L109.699 413.268V366.732Z" fill="#11051D" stroke="#685D9E" stroke-width="6"/>
</g>
<mask id="mask1_165_1947" style="mask-type:alpha" maskUnits="userSpaceOnUse" x="0" y="340" width="100" height="100">
<circle cx="50" cy="390" r="50" fill="#C4C4C4"/>
</mask>
<g mask="url(#mask1_165_1947)">
<path d="M9.69873 366.732L50 343.464L90.3013 366.732V413.268L50 436.536L9.69873 413.268L9.69873 366.732Z" fill="#11051D" stroke="#221C3E" stroke-width="6"/>
</g>
<mask id="mask2_165_1947" style="mask-type:alpha" maskUnits="userSpaceOnUse" x="200" y="354" width="100" height="100">
<circle cx="250" cy="404" r="50" fill="#C4C4C4"/>
</mask>
<g mask="url(#mask2_165_1947)">
<path d="M209.699 380.732L250 357.464L290.301 380.732V427.268L250 450.536L209.699 427.268V380.732Z" fill="#11051D" stroke="#221C3E" stroke-width="6"/>
</g>
<mask id="mask3_165_1947" style="mask-type:alpha" maskUnits="userSpaceOnUse" x="50" y="254" width="100" height="100">
<circle cx="100" cy="304" r="50" fill="#C4C4C4"/>
</mask>
<g mask="url(#mask3_165_1947)">
<path d="M59.6987 280.732L100 257.464L140.301 280.732V327.268L100 350.536L59.6987 327.268L59.6987 280.732Z" fill="#11051D" stroke="#685D9E" stroke-width="6"/>
</g>
<mask id="mask4_165_1947" style="mask-type:alpha" maskUnits="userSpaceOnUse" x="150" y="254" width="100" height="100">
<circle cx="200" cy="304" r="50" fill="#C4C4C4"/>
</mask>
<g mask="url(#mask4_165_1947)">
<path d="M159.699 280.732L200 257.464L240.301 280.732V327.268L200 350.536L159.699 327.268V280.732Z" fill="#11051D" stroke="#685D9E" stroke-width="6"/>
</g>
<mask id="mask5_165_1947" style="mask-type:alpha" maskUnits="userSpaceOnUse" x="0" y="170" width="100" height="100">
<circle cx="50" cy="220" r="50" fill="#C4C4C4"/>
</mask>
<g mask="url(#mask5_165_1947)">
<path d="M9.69873 196.732L50 173.464L90.3013 196.732V243.268L50 266.536L9.69873 243.268L9.69873 196.732Z" fill="#11051D" stroke="#685D9E" stroke-width="6"/>
</g>
<mask id="mask6_165_1947" style="mask-type:alpha" maskUnits="userSpaceOnUse" x="150" y="87" width="100" height="100">
<circle cx="200" cy="137" r="50" fill="#C4C4C4"/>
</mask>
<g mask="url(#mask6_165_1947)">
<path d="M159.699 113.732L200 90.4641L240.301 113.732V160.268L200 183.536L159.699 160.268V113.732Z" fill="#11051D" stroke="#685D9E" stroke-width="6"/>
</g>
<mask id="mask7_165_1947" style="mask-type:alpha" maskUnits="userSpaceOnUse" x="200" y="170" width="100" height="100">
<circle cx="250" cy="220" r="50" fill="#C4C4C4"/>
</mask>
<g mask="url(#mask7_165_1947)">
<path d="M209.699 196.732L250 173.464L290.301 196.732V243.268L250 266.536L209.699 243.268V196.732Z" fill="#11051D" stroke="#685D9E" stroke-width="6"/>
</g>
<mask id="mask8_165_1947" style="mask-type:alpha" maskUnits="userSpaceOnUse" x="100" y="170" width="100" height="100">
<circle cx="150" cy="220" r="50" fill="#C4C4C4"/>
</mask>
<g mask="url(#mask8_165_1947)">
<path d="M109.699 196.732L150 173.464L190.301 196.732V243.268L150 266.536L109.699 243.268V196.732Z" fill="#11051D" stroke="#685D9E" stroke-width="6"/>
</g>
<mask id="mask9_165_1947" style="mask-type:alpha" maskUnits="userSpaceOnUse" x="50" y="87" width="100" height="100">
<circle cx="100" cy="137" r="50" fill="#C4C4C4"/>
</mask>
<g mask="url(#mask9_165_1947)">
<path d="M59.6987 113.732L100 90.4641L140.301 113.732V160.268L100 183.536L59.6987 160.268L59.6987 113.732Z" fill="#11051D" stroke="#685D9E" stroke-width="6"/>
</g>
<mask id="mask10_165_1947" style="mask-type:alpha" maskUnits="userSpaceOnUse" x="100" y="0" width="100" height="100">
<circle cx="150" cy="50" r="50" fill="#C4C4C4"/>
</mask>
<g mask="url(#mask10_165_1947)">
<path d="M109.699 26.732L150 3.4641L190.301 26.732V73.268L150 96.5359L109.699 73.268V26.732Z" fill="#11051D" stroke="#685D9E" stroke-width="6"/>
</g>
<mask id="mask11_165_1947" style="mask-type:alpha" maskUnits="userSpaceOnUse" x="0" y="0" width="100" height="100">
<circle cx="50" cy="50" r="50" fill="#C4C4C4"/>
</mask>
<g mask="url(#mask11_165_1947)">
<path d="M9.69873 26.732L50 3.4641L90.3013 26.732V73.268L50 96.5359L9.69873 73.268L9.69873 26.732Z" fill="#11051D" stroke="#221C3E" stroke-width="6"/>
</g>
<mask id="mask12_165_1947" style="mask-type:alpha" maskUnits="userSpaceOnUse" x="250" y="270" width="100" height="100">
<circle cx="300" cy="320" r="50" fill="#C4C4C4"/>
</mask>
<g mask="url(#mask12_165_1947)">
<path d="M259.699 296.732L300 273.464L340.301 296.732V343.268L300 366.536L259.699 343.268V296.732Z" fill="#11051D" stroke="#221C3E" stroke-width="6"/>
</g>
<mask id="mask13_165_1947" style="mask-type:alpha" maskUnits="userSpaceOnUse" x="250" y="80" width="100" height="100">
<circle cx="300" cy="130" r="50" fill="#C4C4C4"/>
</mask>
<g mask="url(#mask13_165_1947)">
<path d="M259.699 106.732L300 83.4641L340.301 106.732V153.268L300 176.536L259.699 153.268V106.732Z" fill="#11051D" stroke="#221C3E" stroke-width="6"/>
</g>
<mask id="mask14_165_1947" style="mask-type:alpha" maskUnits="userSpaceOnUse" x="200" y="0" width="100" height="100">
<circle cx="250" cy="50" r="50" fill="#C4C4C4"/>
</mask>
<g mask="url(#mask14_165_1947)">
<path d="M209.699 26.732L250 3.4641L290.301 26.732V73.268L250 96.5359L209.699 73.268V26.732Z" fill="#11051D" stroke="#221C3E" stroke-width="6"/>
</g>
<mask id="mask15_165_1947" style="mask-type:alpha" maskUnits="userSpaceOnUse" x="300" y="170" width="100" height="100">
<circle cx="350" cy="220" r="50" fill="#C4C4C4"/>
</mask>
<g mask="url(#mask15_165_1947)">
<path d="M309.699 196.732L350 173.464L390.301 196.732V243.268L350 266.536L309.699 243.268V196.732Z" fill="#11051D" stroke="#221C3E" stroke-width="6"/>
</g>
</g>
</svg>
