<svg width="2559" height="2552" viewBox="0 0 2559 2552" fill="none" xmlns="http://www.w3.org/2000/svg">
<g clip-path="url(#clip0_242_10247)">
<path d="M1443.16 237.821C1402.3 260.821 1371.45 299.067 1346.28 341.313C1334.06 361.834 1322.72 383.302 1312.39 405.49C1302.54 426.661 1294.57 449.2 1285.46 470.948C1275.81 493.933 1267.51 517.892 1258.49 541.34C1250.07 563.213 1241.02 584.592 1232.35 606.258C1212.89 654.787 1188.68 701.119 1159.33 740.786C1130.49 779.747 1094.14 808.183 1051.18 827.095C1007.38 846.395 959.42 857.008 910.09 862.999C806.917 875.549 698.742 869.948 592.805 872.506C493.63 874.884 394.209 882.568 311.415 927.399C300.989 933.057 290.885 939.277 281.214 946.173" stroke="white" stroke-opacity="0.05" stroke-width="3.27711" stroke-miterlimit="10" stroke-linecap="round"/>
<path d="M1531.95 321.784C1489.22 338.429 1458.48 375.849 1431.46 413.701C1417.72 432.939 1404.27 452.78 1393.92 475.222C1384.2 496.315 1373.59 516.824 1363.02 537.25C1352.86 556.878 1341.41 575.323 1330.95 594.646C1319.38 616.079 1307.38 636.644 1293.08 655.519C1264.05 693.871 1233.04 729.549 1191.6 751.653C1187.54 753.825 1183.27 755.547 1179.15 757.576C1174.07 760.093 1169.63 764.044 1164.93 767.245C1155.06 773.927 1144.91 780.177 1134.56 786.063C1114.26 797.646 1093.19 807.913 1071.69 817.23C1047.89 827.52 1023.4 836.416 998.533 844.448C974.71 852.146 950.255 858.411 925.846 864.86C912.98 868.275 900.009 871.481 887.016 874.579C880.884 876.043 874.74 877.453 868.58 878.872C862.684 880.222 857.544 882.81 851.808 884.457C826.672 891.652 799.843 895.603 773.88 900.724C723.189 910.73 672.337 921.044 623.572 935.789C598.513 943.361 572.374 948.985 547.249 956.628C524.023 963.69 500.701 970.234 478.005 978.489C430.926 995.603 385.58 1016.6 343.804 1043.5C334.012 1049.8 324.439 1056.42 315.151 1063.48" stroke="white" stroke-opacity="0.05" stroke-width="3.27711" stroke-miterlimit="10" stroke-linecap="round"/>
<path d="M1626.07 395.42C1606.12 398.547 1588.29 411.054 1572.81 422.492C1552.99 437.12 1536.11 455.48 1518.9 473.459C1510.45 482.282 1502.15 491.434 1495.07 501.787C1489.96 509.27 1485.78 517.457 1480.22 524.519C1473.99 532.406 1468.79 541.249 1462.74 549.306C1456.21 557.986 1448.64 565.634 1442.15 574.412C1436.75 581.707 1430.81 588.395 1425.21 595.477C1419.44 602.783 1414.51 610.916 1408.4 617.914C1392.3 636.342 1374.13 652.878 1355.61 668.2C1337.11 683.513 1316.84 696.323 1294.92 706.106C1286.36 709.932 1275.64 711.096 1268.48 717.009C1258.94 724.916 1249.15 732.434 1239.19 739.718C1152.05 803.238 1053.62 848.324 954.103 890.214C947.927 892.826 941.349 894.925 935.575 898.233C930.071 901.375 924.93 904.571 919.024 907.019C905.694 912.507 892.338 917.919 878.929 923.242C853.379 933.419 827.747 943.463 802.024 953.321C775.595 963.458 749.207 973.66 722.922 984.103C697.891 994.055 673.695 1005.38 648.928 1015.83C622.607 1026.94 596.509 1038.48 570.73 1050.61C562.21 1054.63 553.005 1057.3 544.376 1061.16C531.445 1066.98 518.619 1073.01 505.915 1079.24C457.943 1102.75 411.369 1128.99 367.415 1159.27C357.282 1166.23 347.299 1173.44 337.506 1180.93" stroke="white" stroke-opacity="0.05" stroke-width="3.27711" stroke-miterlimit="10" stroke-linecap="round"/>
<path d="M1722.26 464.317C1713.6 463.714 1705.44 468.14 1698.35 471.371C1686.31 476.891 1674.57 483.133 1663.43 490.231C1641.07 504.465 1620.2 521.74 1600.63 539.975C1593.51 546.626 1588 554.651 1581.54 561.926C1575.69 568.524 1569.42 574.649 1563.5 581.114C1556.01 589.257 1548.66 597.591 1541.29 605.902C1535.34 612.622 1528.72 618.598 1522.89 625.431C1516.35 633.086 1510.63 641.302 1503.35 648.199C1494.24 656.813 1484.15 664.271 1474.75 672.185C1454.51 689.251 1432.8 703.49 1409.09 715.033C1400.97 718.981 1392.61 721.648 1383.98 724.394C1379.08 725.951 1375 730.595 1370.92 733.746C1365.9 737.631 1360.84 741.471 1355.73 745.223C1333.48 761.67 1310.57 777.119 1287.31 792.025C1263.58 807.223 1239.53 821.945 1215.14 836.081C1202.34 843.519 1189.47 850.793 1176.51 857.933C1164.28 864.69 1152.15 873.329 1138.64 877.623C1125.21 881.868 1113.2 890.429 1100.86 896.86C1087.79 903.674 1074.67 910.4 1061.51 917.06C1048.52 923.613 1035.49 930.099 1022.42 936.519C1010.35 942.453 999.276 949.961 987.162 955.83C935.566 980.792 883.506 1004.89 831.592 1029.25C805.312 1041.57 779.07 1053.99 752.934 1066.62C740.538 1072.6 729.212 1080.26 716.856 1086.31C703.851 1092.69 690.873 1099.11 677.933 1105.64C664.82 1112.23 651.745 1118.93 638.74 1125.71C626.179 1132.24 613.979 1140.77 600.538 1145.54C587.144 1150.28 575.054 1157.98 562.732 1164.76C549.759 1171.91 536.869 1179.16 524.057 1186.58C476.264 1214.23 429.555 1243.76 384.603 1275.93C374.513 1283.14 364.517 1290.51 354.615 1298.03" stroke="white" stroke-opacity="0.05" stroke-width="3.27711" stroke-miterlimit="10" stroke-linecap="round"/>
<path d="M1818.44 533.209C1809.65 533.931 1801.57 539.034 1794.24 542.837C1782.84 548.726 1771.62 555.019 1760.74 561.802C1735.79 577.345 1712.33 595.287 1689.46 613.927C1681.42 620.47 1672.82 626.982 1666.28 635.458C1660.17 643.373 1652.56 649.1 1645.58 655.994C1632.1 669.341 1620.66 684.864 1607.86 699.007C1602.18 705.285 1595.62 710.498 1590.82 717.732C1584.78 726.813 1577.74 734.503 1570.1 741.796C1560.45 751.049 1549.91 759.141 1540.27 768.321C1528.79 779.29 1516.97 789.802 1504.73 799.724C1487.25 813.893 1468.39 825.785 1449.12 837.172C1438.52 843.449 1428.75 851.287 1418.5 858.139C1406.48 866.166 1394.35 874.017 1382.14 881.734C1332.2 913.266 1280.95 942.661 1228.95 970.745C1173.92 1000.47 1117.08 1027 1061.25 1055.42C1047.19 1062.56 1033.63 1070.4 1019.41 1077.26C1004.91 1084.21 990.395 1091.12 975.861 1098.01C947.804 1111.29 919.71 1124.48 891.588 1137.61C862.724 1151.12 833.871 1164.67 805.112 1178.38C777.647 1191.48 750.978 1205.89 723.685 1219.31C614.787 1272.84 507.045 1328.3 404.882 1393.52C393.784 1400.59 382.771 1407.76 371.808 1415.05" stroke="white" stroke-opacity="0.05" stroke-width="3.27711" stroke-miterlimit="10" stroke-linecap="round"/>
<path d="M1912.59 606.837C1891.13 615.825 1871.54 629.827 1852.35 642.647C1827.45 659.28 1803.58 677.413 1779.35 695.034C1767.51 703.647 1755.69 712.337 1744.25 721.528C1736.32 727.876 1729.53 735.442 1721.99 742.132C1705.55 756.67 1688.14 769.925 1671.56 784.306C1636.75 814.505 1604.41 847.803 1566.86 874.217C1542.08 891.625 1518.84 911.372 1493.92 928.655C1476.09 941.043 1457.09 951.561 1438.88 963.33C1333.6 1031.51 1222.53 1090.06 1111.04 1147.65C1053.03 1177.62 995.167 1207.76 936.668 1236.87C907.971 1251.15 879.313 1265.53 850.711 1279.96C821.079 1294.93 792.025 1310.89 762.487 1326.01C648.768 1384.26 536.038 1444.25 427.546 1511.51C416.368 1518.44 405.232 1525.41 394.135 1532.48" stroke="white" stroke-opacity="0.05" stroke-width="3.27711" stroke-miterlimit="10" stroke-linecap="round"/>
<path d="M2001.35 690.81C1952.35 720.167 1905.24 752.525 1858.21 785.015C1834.71 801.251 1810.69 816.741 1787.78 833.895C1771.75 845.878 1755.93 858.161 1739.75 870.027C1719.84 884.618 1699.76 898.953 1679.69 913.279C1663.15 925.06 1647.11 937.51 1630.54 949.216C1605.4 966.997 1580 984.485 1553.21 999.632C1524.69 1015.74 1495.56 1030.77 1466.77 1046.41C1455.49 1052.53 1444.19 1058.69 1432.5 1064.09C1429.51 1065.46 1426.26 1066.44 1423.3 1067.88C1418.01 1070.43 1413.32 1074.63 1408.46 1077.95C1382.6 1095.66 1356.38 1112.82 1330.03 1129.77C1276.07 1164.45 1222.73 1200.64 1166.71 1231.91C1105.58 1266.04 1044.34 1299.98 982.77 1333.36C923.014 1365.72 862.701 1397.24 803.779 1431.01C746.734 1463.69 688.75 1494.76 631.853 1527.69C574.592 1560.8 517.711 1594.51 461.421 1629.22C450.324 1636.07 439.241 1642.95 428.171 1649.85" stroke="white" stroke-opacity="0.05" stroke-width="3.27711" stroke-miterlimit="10" stroke-linecap="round"/>
<path d="M2076.92 789.683C2028.96 818.92 1980.98 848.167 1933.02 877.404C1886.56 905.727 1840.08 934.06 1793.62 962.384C1752.57 987.409 1711.51 1012.43 1670.44 1037.47C1622.77 1066.53 1575.11 1095.59 1527.44 1124.65C1480.56 1153.22 1433.68 1181.8 1386.81 1210.38C1331.98 1243.8 1277.18 1277.21 1222.35 1310.63C1162.54 1347.09 1102.72 1383.55 1042.89 1420.03C983.997 1455.93 925.106 1491.83 866.215 1527.73C806.606 1564.06 746.997 1600.4 687.404 1636.73C629.263 1672.17 571.138 1707.61 512.996 1743.05C502.466 1749.47 491.919 1755.9 481.389 1762.32" stroke="white" stroke-opacity="0.05" stroke-width="3.27711" stroke-miterlimit="10" stroke-linecap="round"/>
<path d="M2130.19 902.152C2081.49 931.048 2032 958.522 1982.04 985.243C1952.67 1000.96 1923.5 1016.98 1894.03 1032.5C1871.92 1044.12 1849.14 1054.4 1826.71 1065.38C1805.44 1075.79 1784.23 1086.45 1763.17 1097.28C1740.8 1108.8 1718.26 1119.96 1695.77 1131.28C1676.12 1141.16 1655.98 1149.83 1636.23 1159.47C1608.53 1173.02 1581.67 1188.06 1554.2 1202.02C1496.95 1231.12 1440.58 1261.79 1384.8 1293.49C1338.98 1319.54 1294.29 1347.42 1249.93 1375.85C1192.89 1412.42 1136.61 1450.06 1080.67 1488.35C1023.88 1527.21 967.099 1565.74 911.854 1606.93C858.53 1646.69 805.029 1686.37 750.945 1724.95C696.911 1763.47 642.858 1801.85 588.186 1839.39C577.732 1846.58 567.275 1853.81 556.93 1861.17" stroke="white" stroke-opacity="0.05" stroke-width="3.27711" stroke-miterlimit="10" stroke-linecap="round"/>
<path d="M2164.16 1019.52C2115.47 1046.87 2065.74 1072.18 2014.91 1095.71C1985.32 1109.41 1955.58 1122.81 1925.91 1136.35C1901.8 1147.34 1877.61 1158.63 1852.18 1167.01C1830.36 1174.18 1809.44 1183.26 1788.28 1191.85C1775.41 1197.09 1762.47 1201.92 1750.31 1208.54C1738.07 1215.21 1724.04 1219.01 1711.06 1224.31C1665.56 1242.89 1618.72 1258.37 1573.91 1278.35C1516.02 1304.15 1457.13 1328.7 1401.12 1357.99C1379.16 1369.47 1357.36 1381.24 1335.62 1393.1C1311.71 1406.16 1289.28 1422.17 1266.77 1437.47C1215.08 1472.58 1166.29 1511.7 1117.37 1550.74C1066.64 1591.24 1015.16 1630.82 967.455 1675.49C920.718 1719.26 873.029 1761.8 824.694 1803.46C812.215 1814.22 800.149 1825.52 787.469 1836.13C774.69 1846.83 761.815 1857.41 748.872 1867.87C725.061 1887.15 700.651 1905.52 675.952 1923.52C665.931 1930.81 655.87 1938.03 645.725 1945.16" stroke="white" stroke-opacity="0.05" stroke-width="3.27711" stroke-miterlimit="10" stroke-linecap="round"/>
<path d="M2186.47 1136.94C2138.22 1163.26 2088.43 1186.52 2037.19 1207.29C2009.21 1218.61 1980.95 1229.38 1952.89 1240.54C1925.29 1251.51 1897.42 1262.04 1868.72 1270.68C1857.3 1274.13 1845.57 1276.76 1834.11 1280.07C1822.81 1283.35 1811.92 1287.57 1800.81 1291.28C1789.77 1294.97 1778.54 1298.23 1767.38 1301.64C1753.03 1306.03 1739.29 1311.67 1724.96 1316.1C1702.61 1323.02 1680.27 1329.81 1658.12 1337.16C1636.26 1344.42 1613.35 1349.2 1591.43 1356.43C1563.12 1365.78 1535.74 1376.98 1507.99 1387.49C1478.37 1398.7 1448.99 1410.42 1419.98 1422.83C1391.53 1434.99 1363.64 1448.05 1336.23 1462.18C1316.52 1472.31 1296.83 1482.34 1278.53 1494.86C1257.89 1508.96 1237.66 1523.81 1218.44 1539.99C1206.51 1550.01 1194.7 1560.22 1183.1 1570.66C1177.1 1576.04 1171.15 1581.49 1165.26 1587.02C1162.92 1589.21 1160.56 1591.37 1158.23 1593.55C1155.36 1596.24 1153.37 1599.36 1150.87 1602.34C1140.44 1614.77 1127.73 1625.12 1116.53 1636.68C1106.01 1647.53 1096.42 1660.41 1084.82 1669.82C1072.93 1679.46 1062.9 1691.73 1052.44 1703.23C1041.76 1714.99 1031.14 1726.83 1020.6 1738.77C999.416 1762.82 979.173 1787.99 957.942 1812C953.794 1816.68 949.114 1820.38 944.704 1824.71C938.91 1830.43 933.809 1837.17 928.362 1843.31C917.803 1855.18 907.064 1866.82 896.185 1878.31C886.913 1888.08 878.36 1898.39 868.897 1907.89C857.636 1919.21 846.177 1930.32 834.569 1941.22C813.499 1961.01 791.662 1979.54 768.999 1997.15C759.438 2004.58 749.767 2011.87 739.878 2018.84" stroke="white" stroke-opacity="0.05" stroke-width="3.27711" stroke-miterlimit="10" stroke-linecap="round"/>
<path d="M2203.65 1254C2157.82 1279.24 2109.8 1300.38 2060.31 1318.63C2032.41 1328.94 2003.99 1338.07 1975.7 1347.52C1948.77 1356.54 1921.7 1365.46 1894.13 1373.11C1871.34 1379.42 1847.68 1383.35 1824.82 1389.4C1801.83 1395.49 1778.9 1401.56 1755.71 1407.14C1707.33 1418.77 1659.83 1432.69 1610.99 1443.11C1555.63 1454.93 1503 1473.97 1450.27 1491.86C1396.66 1510.04 1344.56 1530.88 1294.49 1556.04C1284.84 1560.89 1274.82 1565.42 1265.64 1571.11C1256.12 1577.04 1247.44 1584.66 1238.79 1591.87C1217.91 1609.28 1198.66 1628.35 1180.42 1649.08C1160.8 1671.39 1143.47 1695.6 1125.8 1720.02C1117.54 1731.42 1110.48 1745.55 1100.65 1755.12C1090.32 1765.18 1082.79 1779.26 1074.69 1791.78C1058.4 1816.97 1042.69 1842.71 1026.38 1867.87C1018.46 1880.11 1011.11 1893.8 1001.02 1903.63C991.185 1913.2 984.131 1927.3 975.87 1938.73C958.194 1963.15 940.869 1987.36 921.245 2009.67C902.989 2030.41 883.738 2049.48 862.87 2066.88C854.159 2074.13 845.282 2081.18 836.025 2087.64" stroke="white" stroke-opacity="0.05" stroke-width="3.27711" stroke-miterlimit="10" stroke-linecap="round"/>
<path d="M2220.82 1371.06C2178.34 1394.53 2133.13 1412.96 2086.42 1428.09C2059.34 1436.87 2031.82 1444.6 2003.94 1451.53C1979.05 1457.73 1954.76 1465.41 1929.78 1471.47C1905.25 1477.42 1880.15 1481.74 1855 1486.04C1831.23 1490.09 1808.08 1495.92 1784.43 1500.27C1735.34 1509.27 1687.95 1522.72 1639.1 1532.37C1586.71 1542.71 1536.49 1558.8 1486.98 1575.99C1435.76 1593.78 1386 1614.65 1339.31 1641.12C1300.35 1663.2 1265.13 1689.89 1236.01 1725.62C1218.03 1747.65 1203.08 1772.02 1187.66 1796.55C1183.84 1802.64 1180.08 1808.78 1176.42 1815.02C1172.48 1821.7 1169.19 1829.4 1164.75 1835.57C1162.75 1838.37 1160.23 1840.48 1158.36 1843.44C1156.4 1846.51 1154.73 1849.9 1152.92 1853.12C1149.21 1859.84 1145.55 1866.62 1141.95 1873.46C1127.96 1899.97 1114.54 1926.9 1099.98 1952.91C1093.59 1964.32 1086.94 1975.11 1079.56 1985.46C1071.47 1996.76 1064.99 2009.99 1057.39 2021.84C1043.07 2044.22 1028.97 2066.19 1012.24 2086.09C996.548 2104.76 979.739 2121.74 961.045 2136.59C951.859 2143.89 942.36 2150.74 932.224 2156.59" stroke="white" stroke-opacity="0.05" stroke-width="3.27711" stroke-miterlimit="10" stroke-linecap="round"/>
<path d="M2243.15 1488.47C2202.4 1513.12 2156.92 1529.6 2109.97 1541.82C2085.25 1548.24 2060.01 1553.46 2034.51 1557.73C2008.04 1562.16 1981.87 1567.22 1954.79 1569.93C1907.58 1574.63 1859.89 1578.04 1812.47 1582.2C1788.35 1584.32 1764.17 1586.08 1740.12 1588.42C1716.86 1590.69 1693.18 1591.44 1670.08 1594.25C1616.85 1600.7 1564.14 1610.67 1513.79 1624.83C1490.1 1631.48 1467.04 1639.38 1444.81 1649.2C1423.64 1658.55 1402.6 1668.59 1384.14 1682.57C1366.76 1695.74 1350.72 1711.07 1336.55 1728.32C1319.85 1748.67 1303.75 1770.52 1291.53 1795.23C1285.57 1807.29 1278.27 1818.32 1272.04 1830.18C1265.72 1842.26 1260.54 1855.61 1253.76 1867.26C1246.85 1879.15 1240.88 1891.58 1235.13 1904.55C1229.31 1917.65 1223.67 1930.91 1218.18 1944.27C1207.18 1971.05 1194.96 1997 1182.48 2022.59C1176.95 2033.91 1170.74 2044.64 1165 2055.81C1158.6 2068.33 1151.93 2080.61 1144.98 2092.61C1119.28 2136.97 1091.47 2178.52 1054.05 2210.07C1045.26 2217.45 1036.1 2224.31 1026.38 2230.27" stroke="white" stroke-opacity="0.05" stroke-width="3.27711" stroke-miterlimit="10" stroke-linecap="round"/>
<path d="M2277.11 1605.85C2237.1 1630.61 2190.34 1643.4 2142.15 1650.4C2093.26 1657.48 2042.34 1658.49 1990.85 1655.98C1966 1654.75 1941.15 1653.68 1916.22 1652.1C1888.71 1650.34 1860.91 1647.09 1833.38 1645.19C1809.37 1643.54 1785.24 1641.17 1761.29 1639.73C1735.22 1638.18 1709.6 1638.33 1684.05 1638.89C1634.42 1639.97 1585.14 1643.24 1539.82 1657.18C1517.21 1664.14 1494.91 1672.04 1476.6 1686.77C1458.33 1701.49 1441.85 1718.91 1427.41 1738.3C1365.26 1821.73 1332.33 1932.49 1291.98 2034.45C1272.18 2084.43 1249.61 2131.92 1227.36 2179.93C1216.59 2203.15 1202.16 2224.14 1187.65 2243.81C1174.47 2261.67 1159.9 2277.98 1143.75 2292.35C1134.74 2300.36 1125.23 2307.73 1115.15 2314.21" stroke="white" stroke-opacity="0.05" stroke-width="3.27711" stroke-miterlimit="10" stroke-linecap="round"/>
<path d="M1257.71 2350.92C1224.06 2296.86 1182.6 2252.8 1135.92 2214.53C1090.16 2177.01 1042.39 2143.2 994.637 2110.93C970.075 2094.33 946.101 2075.64 922.894 2055.7C912.038 2046.37 901.552 2036.38 890.694 2027.08C878.782 2016.87 867.015 2006.36 855.491 1995.46C834.566 1975.68 812.984 1957.11 792.252 1936.99C770.317 1915.73 748.774 1893.93 727.591 1871.6C705.129 1847.93 682.66 1822.99 662.664 1796.54C643.988 1771.86 625.52 1746.48 609.408 1719.73C576.525 1665.11 557.32 1602.12 541.993 1543.19C526.116 1482.15 515.872 1421.58 506.104 1360.93C501.634 1333.21 496.922 1305.27 491.183 1277.44C485.158 1248.2 477.82 1219.04 470.336 1189.82C440.36 1072.62 398.088 955.237 337.724 844.762C329.994 830.61 322.027 816.571 313.901 802.631" stroke="white" stroke-opacity="0.05" stroke-width="3.27711" stroke-miterlimit="10" stroke-linecap="round"/>
<path d="M1307.14 2268.68C1291.54 2243.92 1274.24 2220.1 1254.51 2199.16C1234.87 2178.29 1212.62 2160.98 1190.46 2145.07C1178.14 2136.24 1165.6 2128.02 1153.05 2119.93C1141.68 2112.58 1131.55 2104.68 1120.07 2097.7C1095.62 2082.82 1071.06 2068.1 1046.86 2052.25C1023.91 2037.21 1002.31 2020.66 981.488 2000.75C971.246 1990.95 962.328 1979.95 952.741 1969.36C942.931 1958.5 932.81 1948.33 923.444 1936.84C904.809 1913.99 885.17 1892.15 866.919 1868.85C848.241 1845 829.65 1821 811.675 1796.5C776.041 1747.95 742.322 1694.9 717.134 1640.23C704.35 1612.51 696.223 1583.34 688.259 1554.81C680.32 1526.35 673.604 1497.99 667.776 1469.55C656.464 1414.3 649.143 1359.32 642.321 1304.58C635.607 1250.59 624 1196.98 604.88 1142.86C585.561 1088.16 559.644 1034.26 529.101 983.762C521.533 971.24 514.56 958.508 507.165 945.911C499.366 932.65 490.627 920.145 482.203 907.295C466.482 883.336 449.744 860.116 434.105 836.077C425.621 823.021 417.393 809.811 409.596 796.337" stroke="white" stroke-opacity="0.05" stroke-width="3.27711" stroke-miterlimit="10" stroke-linecap="round"/>
<path d="M1345.7 2176.94C1331.11 2153.5 1315.05 2130.6 1296.12 2111.18C1278.4 2092.99 1257.84 2078.71 1237.7 2066.21C1192.71 2038.29 1146.55 2017.53 1101.06 1991.92C1079.5 1979.77 1057.03 1965.74 1038.33 1946.24C1028.24 1935.71 1018.87 1924.5 1010.75 1912.01C1002.59 1899.49 993.207 1888.01 985.291 1875.27C977.766 1863.18 971.323 1850.67 963.401 1838.79C955.725 1827.27 948.542 1815.28 941.695 1803.25C934.017 1789.8 927.109 1776.03 919.335 1762.63C911.721 1749.53 904.584 1736.17 897.411 1722.86C869.041 1670.22 843.498 1614.85 825.196 1559.19C820.475 1544.85 818.132 1529.84 815.148 1515.43C812.214 1501.17 809.43 1486.95 806.797 1472.72C801.649 1444.93 797.414 1417.3 793.558 1389.69C786.5 1339.16 783.372 1289.48 778.157 1239.28C772.829 1188 763.75 1136.09 740.384 1085.16C728.768 1059.82 714.31 1035.24 697.62 1012.78C693.92 1007.79 689.906 1003.32 685.923 998.653C681.826 993.872 678.456 988.344 674.67 983.282C666.145 971.92 656.118 963.476 646.887 953.18C637.866 943.121 628.355 933.512 619.188 923.573C608.871 912.393 597.748 902.797 586.889 892.523C568.67 875.273 549.982 858.763 533.496 838.97C524.446 828.109 516.113 816.448 508.848 804.136" stroke="white" stroke-opacity="0.05" stroke-width="3.27711" stroke-miterlimit="10" stroke-linecap="round"/>
<path d="M1379.35 2081.42C1365.79 2059.18 1350.96 2037.01 1332.8 2019.03C1314.92 2001.33 1293.58 1989.01 1273.22 1978.71C1226.78 1955.19 1179.48 1941.5 1133.11 1917.09C1110.71 1905.3 1090.39 1890.84 1073.26 1868.2C1064.62 1856.79 1058.63 1845.34 1052.32 1832.59C1046.45 1820.7 1040.11 1809.43 1035.6 1797.05C1033.25 1790.57 1031.36 1784.1 1028.89 1777.67C1026.18 1770.64 1022.88 1763.86 1019.95 1756.88C1014.58 1744.05 1009.9 1730.98 1005.81 1717.92C997.458 1691.25 987.353 1664.84 978.883 1638.13C970.233 1610.8 961.904 1583.25 954.265 1555.82C946.59 1528.25 938.915 1499.72 935.929 1472.46C930.009 1418.23 925.209 1364.26 921.144 1310.42C917.302 1259.57 918.335 1210.14 914.156 1159.13C910.176 1110.45 898.188 1057.44 868.963 1011.69C862.051 1000.89 853.56 990.476 844.865 981.491C836.072 972.416 826.757 963.02 816.934 955.846C812.374 952.53 807.84 950.047 803.54 946.117C799.085 942.04 794.474 938.21 789.687 934.88C785.103 931.669 780.394 928.899 775.624 926.53C769.71 923.614 764.234 920.553 758.396 917.258C748.363 911.606 738.44 905.525 728.389 899.915C716.736 893.401 704.933 888.434 693.199 882.576C672.802 872.416 652.06 863.771 633.38 846.984C624.175 838.705 615.881 828.868 609.134 817.908" stroke="white" stroke-opacity="0.05" stroke-width="3.27711" stroke-miterlimit="10" stroke-linecap="round"/>
<path d="M1413.01 1985.94C1399.17 1963.08 1383.91 1939.56 1364.11 1922.67C1360.18 1919.3 1356.11 1916.39 1351.89 1913.74C1348.89 1911.84 1345.03 1910.46 1342.24 1908.19C1340.93 1907.11 1341.22 1906.57 1340.06 1905.64C1334.93 1901.54 1327.5 1899.25 1321.98 1896.85C1315.52 1894.03 1309.04 1891.52 1302.54 1889.11C1280.02 1880.79 1257.08 1873.85 1234.64 1867.76C1211.39 1861.43 1186.2 1854.68 1163.22 1841.9C1154.74 1837.18 1145.69 1831.42 1137.67 1824.69C1127.44 1816.1 1119.96 1805.68 1112.8 1793.87C1105.44 1781.68 1102.02 1768.72 1097.39 1755.74C1093.01 1743.38 1090.23 1730.93 1088.76 1718.61C1085.69 1693.21 1079.28 1667.62 1076.95 1642.22C1074.4 1614.27 1069.09 1586.18 1066.22 1558.21C1063.38 1530.4 1059.68 1502.6 1057.03 1474.92C1055.54 1459.41 1054.09 1443.89 1052.47 1428.35C1050.88 1413.21 1050.88 1398.75 1050.74 1384.01C1050.23 1329.36 1050.53 1275.1 1049.94 1220.42C1049.64 1193.48 1052.65 1167.72 1052.62 1140.81C1052.61 1128.99 1052.06 1117.04 1051.76 1105.12C1051.44 1092.28 1049.49 1079.36 1048.46 1066.4C1044.83 1020.49 1021.91 961.158 983.011 930.096C973.495 922.492 962.988 916.492 952.84 911.154C943.496 906.235 934.123 904.215 924.74 899.987C903.316 890.332 883.174 889.6 861.999 884.948C851.688 882.681 841.097 879.918 830.304 878.369C817.995 876.592 805.709 875.105 793.385 873.307C773.548 870.418 753.062 868.621 733.212 855.731C724.112 849.814 715.792 841.693 709.371 831.808" stroke="white" stroke-opacity="0.05" stroke-width="3.27711" stroke-miterlimit="10" stroke-linecap="round"/>
<path d="M1451.58 1894.19C1439.66 1874.03 1426.77 1852.81 1409.86 1837.21C1392.38 1821.06 1370.98 1813.39 1351.61 1808C1340.62 1804.94 1329.71 1802.61 1318.79 1800.53C1309.53 1798.78 1299.6 1796.28 1290.93 1796.26C1285.81 1796.26 1279.78 1794.41 1274.51 1793.53C1268.21 1792.49 1261.9 1791.33 1255.56 1789.98C1244.63 1787.66 1233.56 1784.83 1222.56 1781.1C1203.32 1774.57 1181.24 1763.59 1167.54 1742.61C1160.99 1732.59 1155.73 1720.55 1153.21 1709.38C1150.78 1698.61 1148.29 1687.41 1147.42 1676.84C1146.44 1664.82 1147.14 1653.54 1147.98 1642.17C1148.79 1631.12 1148.18 1619.61 1148.68 1608.44C1149.72 1585.12 1153.44 1562.93 1154.94 1539.79C1156.52 1515.56 1157.85 1491.19 1159.68 1466.72C1161.51 1442.4 1162.99 1417.87 1164.05 1393.23C1164.61 1380 1164.96 1366.69 1164.99 1353.27C1165.01 1340.06 1166.64 1327.39 1167.77 1314.6C1169.86 1291.01 1171.84 1267.36 1173.77 1243.68C1175.68 1220.28 1177.33 1196.77 1178.8 1173.19C1180.24 1150.42 1182.37 1128.1 1184.42 1105.59C1188.25 1064.05 1190.99 1020.58 1181.6 975.352C1176.6 951.2 1167.85 928.054 1153.71 906.161C1140.31 885.429 1124.36 870.647 1104.58 861.322C1084.84 852.01 1066.39 850.183 1047.22 848.282C1038.18 847.39 1029.35 846.319 1020.55 846.709C1010.91 847.126 1001.87 849.208 992.37 849.995C987.536 850.394 982.843 851.132 978.083 851.759C975.578 852.103 973.03 852.231 970.488 852.476C969.936 852.54 966.505 853.266 968.936 852.694C938.413 856.258 909.065 863.474 878.208 866.059C856.851 867.857 826.777 866.234 808.701 839.525" stroke="white" stroke-opacity="0.05" stroke-width="3.27711" stroke-miterlimit="10" stroke-linecap="round"/>
<path d="M1501 1811.95C1487.13 1788.84 1471.44 1762.74 1449.6 1748.88C1426.58 1734.28 1400.88 1731.29 1378.04 1729.08C1352.91 1726.66 1328.39 1726.86 1303.24 1724.15C1280.56 1721.69 1254.64 1717.87 1232.52 1700.63C1207.42 1681.06 1202.75 1649.99 1202.85 1623.19C1202.89 1610.12 1205.25 1597.58 1207.84 1585.72C1210.79 1572.21 1213.78 1558.66 1217.11 1545.38C1223.87 1518.35 1232.64 1492.54 1239.81 1465.73C1247.21 1437.98 1254.07 1409.57 1260.21 1381.02C1284.12 1269.75 1299.52 1153.67 1315.24 1038.12C1322.06 987.958 1328.85 932.685 1308.48 876.076C1299.36 850.734 1281.32 823.217 1260.32 807.446C1238.01 790.66 1212.18 785.991 1189.91 786.222C1142.82 786.662 1102.33 804.738 1061.73 821.113C1038.23 830.621 1014.9 840.779 990.427 848.204C971.498 853.951 948.889 860.121 926.34 851.061C918.086 847.752 910.198 841.885 904.439 833.264" stroke="white" stroke-opacity="0.05" stroke-width="3.27711" stroke-miterlimit="10" stroke-linecap="round"/>
<path d="M1568 1749.82C1553.51 1726.05 1537.06 1698.71 1513.98 1685.76C1485.39 1669.71 1453.93 1671.08 1426.88 1671.65C1398.7 1672.24 1370.88 1675.1 1341.73 1671.45C1317.35 1668.39 1284.24 1658.88 1270.3 1626.53C1258.14 1598.34 1264.71 1570.22 1271.2 1547.31C1279.09 1519.51 1290.33 1494.1 1301.45 1468.7C1325.75 1413.21 1349.45 1357.28 1368.41 1297.77C1387.24 1238.68 1400.16 1175.91 1413.4 1113.37C1425.38 1056.78 1437.36 999.957 1445.71 941.396C1452.91 890.816 1458.84 829.127 1426.87 773.428C1410.5 744.89 1385.6 722.131 1359.04 712.483C1331.87 702.598 1305.26 705.294 1281.52 711.184C1232.98 723.213 1191.7 750.134 1149.84 774.835C1126.41 788.665 1102.85 802.786 1077.23 812.671C1058.5 819.901 1035.23 827.898 1012.13 819.839C1003.82 816.932 995.786 811.185 990.313 802.207" stroke="white" stroke-opacity="0.05" stroke-width="3.27711" stroke-miterlimit="10" stroke-linecap="round"/>
<path d="M1653.92 1718.74C1639.18 1694.99 1622.9 1668.43 1600 1654.92C1573.74 1639.41 1544.86 1636.48 1518.81 1633.05C1494.54 1629.86 1470.18 1628.06 1445.46 1621.05C1421.57 1614.26 1393.48 1602.15 1381.07 1571.74C1369.86 1544.27 1376.13 1516.1 1381.67 1493.25C1387.96 1467.4 1397.05 1443.45 1405.85 1419.31C1415.43 1393.03 1425.55 1367.06 1434.35 1340.22C1443.16 1313.35 1449.5 1284.86 1458 1257.84C1466.66 1230.3 1470.53 1198.7 1474.29 1168.39C1478.05 1138.04 1484.53 1108.95 1489.45 1079.17C1493.83 1052.54 1498.09 1025.92 1500.27 998.238C1501.36 984.443 1502.12 970.544 1502.71 956.538C1502.99 949.571 1503.85 942.895 1504.46 936.064C1505.12 928.683 1504.77 921.136 1505.24 913.722C1508.56 863.566 1508.21 803.215 1477.67 751.107C1462.56 725.318 1440.11 705.154 1416.34 694.231C1392.14 683.112 1367.31 682.297 1345.08 685.174C1296.44 691.504 1254.05 712.337 1210.95 731.06C1188.76 740.708 1166.47 749.712 1143.2 757.016C1124.57 762.854 1101.1 768.185 1078.86 758.749C1070.54 755.212 1062.72 748.997 1057.27 740.01" stroke="white" stroke-opacity="0.05" stroke-width="3.27711" stroke-miterlimit="10" stroke-linecap="round"/>
<path d="M1749.66 1712.48C1735.37 1689.8 1719.91 1664.25 1699.2 1648.52C1675.42 1630.47 1648.15 1621.93 1623.02 1613.38C1599.91 1605.51 1576.38 1597.32 1553.5 1585.42C1529.95 1573.21 1506.46 1555.9 1497.06 1526.27C1488.72 1499.93 1493.22 1473.32 1497.49 1450.61C1502.29 1425.12 1509.09 1400.45 1515.78 1376.07C1530.45 1322.7 1545.45 1269.4 1554.1 1212.48C1558.44 1183.84 1561.59 1154.57 1563.15 1124.68C1564.69 1095.57 1567.34 1066.93 1568.87 1037.82C1570.25 1011.69 1570.97 985.29 1569.44 958.196C1568.63 944.012 1567.42 929.708 1565.53 915.301C1563.82 902.152 1564.38 889.435 1563.85 876.504C1562.76 850.694 1558.88 824.882 1554.01 798.466C1549.2 772.406 1537.78 743.06 1523.12 719.216C1490.89 666.775 1437.93 648.011 1393.67 648.489C1346.82 648.996 1304.82 661.888 1261.23 671.723C1237.71 677.019 1214.27 682.15 1190.13 685.704C1171.35 688.452 1148.76 689.634 1128.1 678.242C1119.83 673.697 1112.25 666.792 1106.75 657.802" stroke="white" stroke-opacity="0.05" stroke-width="3.27711" stroke-miterlimit="10" stroke-linecap="round"/>
<path d="M1848.88 1720.23C1834.09 1696.55 1818.76 1670.11 1798.67 1651.36C1778.26 1632.35 1755.17 1618.52 1732.67 1605.16C1726.67 1601.6 1719.74 1598.39 1714.06 1593.85C1713.07 1593.05 1711.98 1591.63 1710.64 1590.68C1708.34 1589.06 1705.89 1587.58 1703.54 1586.1C1690.81 1578.15 1678.86 1569.63 1666.71 1560C1645.25 1542.96 1625.66 1521.81 1617.64 1493.83C1610.18 1467.77 1612.33 1441.65 1614.87 1418.06C1617.61 1392.4 1622.31 1367.3 1626.67 1342.47C1636.28 1287.69 1646.56 1233.42 1651.49 1176.28C1656.49 1118.43 1656.81 1058.4 1652.28 997.375C1650.36 971.346 1647.03 944.989 1642.1 918.485C1639.38 903.795 1636.09 889.03 1631.99 874.301C1630.38 868.493 1628.02 862.438 1626.95 856.661C1625.51 848.954 1624.52 841.038 1623.52 833.368C1621.66 819.091 1618.39 804.497 1613.9 790.129C1612.12 784.45 1610.01 778.856 1607.86 773.25C1605.47 767.002 1604.16 760.646 1602.11 754.31C1597.87 741.216 1591.33 728.615 1585.36 715.995C1579.19 702.894 1571.46 690.108 1562.89 678.411C1528.75 631.806 1480.38 611.34 1436.38 606.193C1415.22 603.717 1393.65 601.975 1373.2 602.738C1351.07 603.552 1329.31 605.743 1307.04 606.038C1281.48 606.364 1256.22 607.506 1230.22 605.856C1210.2 604.597 1189.01 602.865 1168.63 589.753C1159.65 583.971 1151.45 575.964 1145.3 566.062" stroke="white" stroke-opacity="0.05" stroke-width="3.27711" stroke-miterlimit="10" stroke-linecap="round"/>
<path d="M1949.18 1734.06C1934.42 1709.84 1920.15 1684.42 1902.63 1662.22C1898.23 1656.66 1893.02 1652.34 1888.41 1647.09C1883.58 1641.57 1878.58 1635.91 1873.05 1630.58C1862.59 1620.46 1851.93 1610.85 1841.19 1601.24C1836.36 1596.9 1830.61 1592.58 1826.28 1587.52C1824.33 1585.25 1823.69 1583.64 1821.63 1581.37C1819.03 1578.5 1816.02 1575.94 1813.25 1573.35C1802.25 1563.1 1792.34 1552.1 1782.3 1540.57C1764.16 1519.79 1748.61 1496.63 1741.13 1470.13C1733.79 1444.13 1734.11 1418.27 1734.74 1393.81C1735.42 1366.64 1738.43 1340.16 1740.57 1313.56C1742.79 1286 1746.19 1258.88 1747.59 1230.97C1749.03 1202.1 1749.97 1173.05 1749.93 1143.66C1749.87 1086.16 1740.17 1027.02 1731.01 967.733C1726.92 941.321 1721.17 914.833 1713.58 888.28C1709.36 873.48 1704.71 858.752 1699.19 844.1C1694.23 830.931 1686.51 817.227 1683.11 804.011C1679.43 789.638 1675.16 775.199 1669.59 761.035C1664.55 748.213 1657.87 736.638 1651.78 724.277C1648.67 717.954 1646.56 711.232 1643.36 704.84C1640.18 698.502 1636.54 692.35 1632.8 686.321C1625.41 674.417 1618.7 662.34 1610.21 651.203C1592.95 628.604 1573.25 608.527 1551.27 593.114C1528.64 577.247 1503.67 567.81 1479.99 560.986C1468.47 557.667 1457.09 555.934 1445.59 553.022C1434.18 550.126 1422.83 547.766 1411.54 546.156C1387.05 542.643 1362.89 540.78 1338.28 536.492C1313.15 532.131 1288.19 528.27 1262.92 522.323C1242.62 517.563 1221.6 511.364 1202.35 496.345C1193.46 489.396 1185.38 480.702 1179.01 470.574" stroke="white" stroke-opacity="0.05" stroke-width="3.27711" stroke-miterlimit="10" stroke-linecap="round"/>
<path d="M2049.49 1747.91C2033.69 1721.73 2019.1 1694.68 2002.49 1669.01C1998.91 1663.46 1994.85 1658.27 1990.86 1653.06C1986.59 1647.47 1982.82 1641.16 1978.48 1635.37C1969.62 1623.55 1960.72 1611.8 1951.71 1600.13C1946.97 1594.01 1942.3 1587.82 1937.76 1581.52C1934.38 1576.85 1932.4 1572.05 1928.99 1567.31C1919.89 1554.69 1910.82 1542.36 1902.69 1528.99C1888 1504.77 1874.67 1481.33 1866.66 1454.66C1858.18 1426.35 1856.83 1398.61 1855.56 1371.26C1854.25 1342.65 1855.34 1314.75 1855.36 1286.56C1855.36 1228.76 1855.75 1171.47 1850.53 1112.18C1847.87 1081.96 1843.75 1051.98 1836.46 1021.21C1832.9 1006.1 1828.81 991 1824.23 975.934C1822.01 968.672 1819.69 961.414 1817.24 954.171C1814.58 946.297 1813.16 938.367 1811.23 930.45C1797.57 874.725 1775.45 817.268 1745.26 765.586C1742.16 760.287 1740.02 754.767 1737.57 749.165C1734.69 742.611 1731.34 736.402 1728.26 729.942C1721.63 716.026 1713.9 702.577 1705.27 689.758C1696.81 677.205 1689.62 663.937 1680.77 651.649C1672.84 640.651 1664.92 629.313 1656.44 618.838C1637.5 595.447 1616.39 575.256 1593.62 557.867C1571.17 540.71 1547.12 528.864 1523.24 518.372C1511.57 513.232 1499.95 509.183 1488.24 505.16C1476.84 501.251 1465.48 496.353 1454.07 492.508C1429.83 484.329 1405.61 478.988 1381.36 470.659C1354.96 461.608 1328.13 453.064 1301.84 441.556C1279.86 431.932 1257.95 422.183 1237.91 404.432C1228.43 396.019 1219.74 386.15 1212.63 375.051" stroke="white" stroke-opacity="0.05" stroke-width="3.27711" stroke-miterlimit="10" stroke-linecap="round"/>
<path d="M2148.72 1755.66C2132.5 1728.7 2117.77 1700.95 2103.04 1673.2C2096.43 1660.73 2089.2 1648.4 2082.13 1636.27C2073.81 1622.02 2065.72 1607.66 2057.53 1593.34C2053.81 1586.84 2050.19 1580.28 2046.64 1573.68C2044.96 1570.52 2042.78 1567.06 2041.43 1563.76C2040.93 1562.55 2040.27 1561.1 2040.19 1559.93C2040.13 1559.12 2040.69 1557.74 2040.63 1557.27C2040.06 1552.25 2034.36 1543.9 2031.56 1538.45C2027.78 1531.1 2024.19 1523.68 2020.79 1516.2C2008.21 1488.66 1996.79 1461.13 1989.13 1432.66C1973.43 1374.35 1973.9 1317.17 1970.16 1260.74C1966.32 1202.81 1963.43 1145.23 1955.18 1086.35C1946.69 1025.8 1933.68 964.434 1910.14 904.058C1898.28 873.651 1886.73 843.754 1871.15 814.462C1856.31 786.567 1839.93 758.913 1821.73 733.102C1812.96 720.702 1804.3 708.67 1795.98 695.934C1787.36 682.721 1778.49 669.687 1768.74 657.377C1750.01 633.733 1730.57 610.919 1710.45 588.824C1689.23 565.513 1666.04 544.955 1642.15 526.371C1618.62 508.084 1594.14 493.922 1569.3 480.345C1520.13 453.542 1470 433.633 1420.65 408.312C1394.82 395.061 1368.69 381.421 1343.34 365.82C1320.25 351.6 1297.47 336.737 1277.1 315.822C1267.56 306.02 1258.77 295.121 1251.24 283.337" stroke="white" stroke-opacity="0.05" stroke-width="3.27711" stroke-miterlimit="10" stroke-linecap="round"/>
<path d="M2244.45 1749.4C2211.25 1694.25 2185.55 1634.76 2161.51 1576.08C2158.53 1568.82 2155.68 1561.56 2152.9 1554.27C2150.64 1548.34 2147.26 1541.46 2146.33 1535.41C2144.27 1521.81 2137.2 1506.58 2132.64 1492.56C2122.81 1462.4 2114.06 1432.11 2107.58 1401.81C2094.6 1341.06 2089.9 1281.12 2083.82 1221.38C2080.84 1192.2 2076.62 1162.62 2072.93 1133.27C2069.26 1104.09 2064.09 1074.82 2058.61 1045.44C2055.66 1029.58 2052.41 1013.7 2048.79 997.807C2047.18 990.751 2045.54 983.714 2043.67 976.664C2041.42 968.207 2037.73 959.994 2035.45 951.651C2027.26 921.823 2017.05 891.897 2004.61 862.757C1978.95 802.726 1938.68 747.638 1896.68 698.569C1886.11 686.212 1874.94 674.641 1864.24 662.479C1853.7 650.497 1844.41 638.055 1833.45 626.476C1812.5 604.342 1790.45 583.573 1768.35 563.228C1720.87 519.509 1671.04 482.07 1619.13 449.297C1569.15 417.745 1518.23 388.674 1468.81 355.204C1420.28 322.309 1369.27 286.293 1328.3 238.415C1318.3 226.709 1308.97 214.265 1300.61 201.132" stroke="white" stroke-opacity="0.05" stroke-width="3.27711" stroke-miterlimit="10" stroke-linecap="round"/>
<path d="M1190.72 2413.05C1122.23 2300.7 1018.49 2219.52 921.197 2148.48C820.898 2075.24 716.941 2009.14 621.447 1924.14C575.006 1882.82 530.427 1836.33 494.32 1782.52C458.022 1728.43 432.632 1668.36 414.146 1608.03C376.432 1484.8 364.02 1361.23 346.358 1239.31C327.939 1112.28 305.025 960.167 227.925 833.691C318.456 778.504 447.572 795.086 557.554 810.472C662.56 825.162 770.628 846.812 870.886 837.738C919.881 833.316 966.605 820.392 1004.68 792.569C1042.83 764.675 1071.73 724.248 1095.39 680.047C1143.82 589.591 1172.74 483.375 1209.36 383.804C1244.53 288.157 1287.09 188.028 1367.58 138.958C1444.55 265.214 1568.93 355.164 1673.87 430.063C1774.17 501.641 1878.32 569.286 1970.56 659.24C2015.72 703.282 2057.48 753.403 2088.93 810.447C2120.22 867.194 2141.1 928.129 2156.57 988.331C2188.37 1112.15 2199.52 1234.83 2218.65 1357.55C2237.22 1476.58 2261.87 1606.01 2330.35 1718.33C2249.85 1767.4 2141.33 1759.34 2040.22 1746.8C1934.94 1733.73 1827.27 1710.78 1724.68 1712.39C1674.54 1713.17 1625.37 1720.33 1583.1 1741.46C1540.91 1762.57 1508.05 1798.2 1481.66 1839.7C1427.66 1924.66 1397.38 2030.61 1362.34 2130.7C1326.09 2234.26 1281.65 2357.62 1190.72 2413.05Z" stroke="white" stroke-opacity="0.05" stroke-width="3.27711" stroke-miterlimit="10" stroke-linecap="round"/>
</g>
<defs>
<clipPath id="clip0_242_10247">
<rect width="1868.62" height="1849.69" fill="white" transform="translate(0 972.634) rotate(-31.3664)"/>
</clipPath>
</defs>
</svg>
