<svg width="1440" height="2122" viewBox="0 0 1440 2122" fill="none" xmlns="http://www.w3.org/2000/svg">
<g clip-path="url(#clip0_236_3559)">
<path d="M980.383 -192.179C939.518 -169.179 908.669 -130.933 883.496 -88.6868C871.276 -68.1661 859.94 -46.698 849.612 -24.51C839.758 -3.33897 831.788 19.2003 822.68 40.948C813.034 63.933 804.727 87.8916 795.714 111.34C787.295 133.213 778.245 154.592 769.568 176.258C750.109 224.787 725.896 271.119 696.547 310.786C667.709 349.747 631.361 378.183 588.397 397.095C544.598 416.395 496.641 427.008 447.31 432.999C344.138 445.549 235.962 439.948 130.025 442.506C30.8504 444.884 -68.5701 452.568 -151.364 497.399C-161.79 503.057 -171.894 509.277 -181.565 516.173" stroke="white" stroke-opacity="0.05" stroke-width="3.27711" stroke-miterlimit="10" stroke-linecap="round"/>
<path d="M1069.17 -108.216C1026.44 -91.5713 995.701 -54.1507 968.682 -16.2986C954.936 2.93867 941.492 22.7795 931.143 45.2222C921.417 66.3155 910.809 86.8244 900.238 107.25C890.079 126.878 878.628 145.323 868.173 164.646C856.596 186.079 844.601 206.644 830.305 225.519C801.271 263.871 770.256 299.549 728.822 321.653C724.762 323.825 720.495 325.547 716.37 327.576C711.295 330.093 706.854 334.044 702.152 337.245C692.285 343.927 682.132 350.177 671.78 356.063C651.486 367.646 630.412 377.913 608.91 387.23C585.114 397.52 560.62 406.416 535.754 414.448C511.931 422.146 487.476 428.411 463.066 434.86C450.201 438.275 437.23 441.481 424.237 444.579C418.104 446.043 411.96 447.453 405.801 448.872C399.905 450.222 394.765 452.81 389.029 454.457C363.892 461.652 337.063 465.603 311.101 470.724C260.409 480.73 209.557 491.044 160.793 505.789C135.733 513.361 109.595 518.985 84.4697 526.628C61.2438 533.69 37.9214 540.234 15.2259 548.489C-31.8537 565.603 -77.1992 586.604 -118.975 613.496C-128.767 619.798 -138.34 626.423 -147.628 633.48" stroke="white" stroke-opacity="0.05" stroke-width="3.27711" stroke-miterlimit="10" stroke-linecap="round"/>
<path d="M1163.29 -34.58C1143.34 -31.4525 1125.51 -18.9464 1110.03 -7.50787C1090.21 7.12015 1073.33 25.4801 1056.12 43.4594C1047.67 52.2819 1039.37 61.4344 1032.29 71.787C1027.18 79.2701 1023 87.4572 1017.44 94.5193C1011.22 102.406 1006.01 111.249 999.961 119.306C993.434 127.986 985.863 135.634 979.375 144.412C973.974 151.707 968.027 158.395 962.431 165.477C956.664 172.783 951.731 180.916 945.624 187.914C929.524 206.342 911.352 222.878 892.833 238.2C874.331 253.513 854.062 266.323 832.144 276.106C823.578 279.932 812.864 281.096 805.702 287.009C796.165 294.916 786.37 302.434 776.41 309.718C689.275 373.238 590.836 418.324 491.324 460.214C485.147 462.826 478.57 464.925 472.795 468.233C467.292 471.375 462.15 474.571 456.245 477.019C442.914 482.507 429.559 487.919 416.15 493.242C390.599 503.419 364.968 513.463 339.245 523.321C312.816 533.458 286.428 543.66 260.143 554.103C235.111 564.055 210.916 575.377 186.149 585.834C159.827 596.937 133.729 608.479 107.95 620.615C99.4312 624.625 90.2261 627.295 81.5965 631.161C68.6656 636.981 55.8402 643.01 43.1359 649.238C-4.83644 672.75 -51.4101 698.987 -95.3646 729.27C-105.497 736.235 -115.48 743.442 -125.273 750.929" stroke="white" stroke-opacity="0.05" stroke-width="3.27711" stroke-miterlimit="10" stroke-linecap="round"/>
<path d="M1259.48 34.317C1250.82 33.7137 1242.66 38.1397 1235.57 41.3704C1223.53 46.891 1211.8 53.1327 1200.65 60.2303C1178.29 74.4645 1157.42 91.7394 1137.86 109.975C1130.73 116.625 1125.22 124.65 1118.76 131.926C1112.91 138.524 1106.65 144.649 1100.72 151.114C1093.23 159.257 1085.88 167.591 1078.51 175.902C1072.56 182.621 1065.94 188.598 1060.11 195.431C1053.57 203.086 1047.85 211.301 1040.57 218.199C1031.46 226.812 1021.37 234.27 1011.97 242.185C991.735 259.251 970.017 273.49 946.306 285.032C938.187 288.981 929.833 291.648 921.199 294.393C916.305 295.951 912.221 300.594 908.146 303.746C903.117 307.63 898.06 311.471 892.951 315.223C870.697 331.669 847.792 347.119 824.534 362.025C800.796 377.223 776.747 391.944 752.363 406.081C739.564 413.519 726.687 420.792 713.729 427.933C701.501 434.69 689.369 443.329 675.857 447.623C662.426 451.868 650.422 460.429 638.082 466.86C625.013 473.674 611.89 480.4 598.726 487.06C585.738 493.613 572.71 500.099 559.642 506.519C547.568 512.453 536.497 519.961 524.383 525.829C472.787 550.792 420.727 574.885 368.812 599.253C342.533 611.573 316.291 623.991 290.155 636.617C277.759 642.597 266.432 650.261 254.077 656.306C241.072 662.688 228.093 669.112 215.153 675.636C202.04 682.234 188.966 688.932 175.96 695.707C163.399 702.242 151.2 710.77 137.758 715.537C124.364 720.275 112.275 727.978 99.9529 734.761C86.9793 741.912 74.0896 749.164 61.2777 756.58C13.4852 784.228 -33.2239 813.762 -78.176 845.926C-88.2666 853.139 -98.2624 860.507 -108.164 868.029" stroke="white" stroke-opacity="0.05" stroke-width="3.27711" stroke-miterlimit="10" stroke-linecap="round"/>
<path d="M1355.66 103.209C1346.87 103.931 1338.8 109.034 1331.46 112.837C1320.06 118.726 1308.84 125.019 1297.96 131.802C1273.01 147.345 1249.55 165.287 1226.69 183.927C1218.64 190.47 1210.04 196.982 1203.5 205.458C1197.39 213.373 1189.78 219.1 1182.8 225.994C1169.32 239.341 1157.88 254.864 1145.08 269.007C1139.4 275.285 1132.84 280.498 1128.04 287.732C1122 296.813 1114.96 304.503 1107.32 311.796C1097.67 321.049 1087.13 329.141 1077.49 338.321C1066.01 349.29 1054.19 359.802 1041.95 369.724C1024.47 383.893 1005.62 395.785 986.339 407.172C975.744 413.449 965.969 421.287 955.724 428.139C943.7 436.166 931.569 444.017 919.357 451.734C869.424 483.266 818.166 512.661 766.175 540.745C711.138 570.474 654.3 596.996 598.467 625.421C584.416 632.562 570.855 640.402 556.628 647.255C542.135 654.21 527.615 661.121 513.081 668.009C485.025 681.291 456.93 694.475 428.809 707.615C399.945 721.116 371.091 734.67 342.333 748.38C314.867 761.483 288.198 775.892 260.906 789.315C152.008 842.84 44.2658 898.298 -57.8971 963.518C-68.9949 970.586 -80.0088 977.756 -90.9718 985.046" stroke="white" stroke-opacity="0.05" stroke-width="3.27711" stroke-miterlimit="10" stroke-linecap="round"/>
<path d="M1449.81 176.837C1428.35 185.825 1408.76 199.826 1389.57 212.647C1364.67 229.28 1340.8 247.412 1316.57 265.033C1304.73 273.647 1292.91 282.337 1281.47 291.528C1273.54 297.876 1266.75 305.441 1259.21 312.132C1242.77 326.67 1225.36 339.925 1208.78 354.306C1173.97 384.505 1141.63 417.803 1104.08 444.217C1079.3 461.625 1056.06 481.372 1031.14 498.655C1013.31 511.043 994.313 521.56 976.101 533.329C870.82 601.512 759.753 660.06 648.259 717.654C590.255 747.615 532.388 777.764 473.888 806.874C445.192 821.153 416.534 835.53 387.932 849.963C358.3 864.933 329.245 880.886 299.708 896.011C185.989 954.264 73.2591 1014.25 -35.233 1081.51C-46.4117 1088.44 -57.5469 1095.41 -68.6447 1102.48" stroke="white" stroke-opacity="0.05" stroke-width="3.27711" stroke-miterlimit="10" stroke-linecap="round"/>
<path d="M1538.57 260.81C1489.57 290.168 1442.46 322.525 1395.43 355.016C1371.93 371.251 1347.91 386.741 1325 403.896C1308.97 415.878 1293.15 428.161 1276.97 440.028C1257.06 454.619 1236.98 468.953 1216.91 483.279C1200.37 495.061 1184.33 507.51 1167.76 519.216C1142.62 536.997 1117.22 554.485 1090.43 569.633C1061.91 585.745 1032.78 600.775 1003.99 616.413C992.707 622.532 981.407 628.694 969.725 634.087C966.731 635.457 963.477 636.439 960.523 637.876C955.233 640.434 950.544 644.626 945.68 647.955C919.818 665.662 893.602 682.825 867.252 699.768C813.288 734.453 759.953 770.636 703.93 801.906C642.805 836.044 581.558 869.983 519.991 903.36C460.235 935.723 399.922 967.243 340.999 1001.01C283.954 1033.69 225.97 1064.76 169.074 1097.69C111.812 1130.8 54.932 1164.51 -1.3587 1199.22C-12.4551 1206.07 -23.5385 1212.95 -34.6079 1219.85" stroke="white" stroke-opacity="0.05" stroke-width="3.27711" stroke-miterlimit="10" stroke-linecap="round"/>
<path d="M1614.14 359.683C1566.18 388.92 1518.2 418.167 1470.24 447.404C1423.78 475.727 1377.3 504.06 1330.84 532.384C1289.79 557.409 1248.73 582.435 1207.66 607.471C1159.99 636.533 1112.33 665.586 1064.66 694.648C1017.78 723.224 970.904 751.8 924.027 780.376C869.204 813.795 814.397 847.206 759.575 880.625C699.758 917.089 639.942 953.553 580.109 990.027C521.218 1025.93 462.327 1061.83 403.436 1097.73C343.827 1134.06 284.218 1170.4 224.625 1206.73C166.484 1242.17 108.358 1277.61 50.217 1313.05C39.6865 1319.47 29.1399 1325.9 18.6094 1332.32" stroke="white" stroke-opacity="0.05" stroke-width="3.27711" stroke-miterlimit="10" stroke-linecap="round"/>
<path d="M1667.41 472.152C1618.71 501.048 1569.22 528.522 1519.26 555.243C1489.89 570.964 1460.72 586.984 1431.25 602.496C1409.14 614.122 1386.36 624.398 1363.93 635.376C1342.66 645.793 1321.45 656.448 1300.39 667.283C1278.02 678.798 1255.48 689.962 1232.99 701.277C1213.34 711.161 1193.2 719.832 1173.45 729.474C1145.75 743.023 1118.9 758.059 1091.43 772.015C1034.17 801.124 977.8 831.788 922.017 863.488C876.203 889.536 831.508 917.418 787.15 945.854C730.107 982.416 673.832 1020.06 617.886 1058.35C561.105 1097.21 504.32 1135.74 449.075 1176.93C395.75 1216.69 342.249 1256.37 288.165 1294.95C234.132 1333.47 180.079 1371.85 125.407 1409.39C114.953 1416.58 104.496 1423.81 94.1503 1431.17" stroke="white" stroke-opacity="0.05" stroke-width="3.27711" stroke-miterlimit="10" stroke-linecap="round"/>
<path d="M1701.38 589.523C1652.69 616.873 1602.96 642.18 1552.13 665.706C1522.54 679.409 1492.8 692.806 1463.13 706.345C1439.02 717.342 1414.83 728.633 1389.4 737.005C1367.58 744.181 1346.66 753.264 1325.5 761.854C1312.63 767.092 1299.69 771.92 1287.53 778.543C1275.29 785.214 1261.26 789.008 1248.28 794.314C1202.79 812.886 1155.94 828.372 1111.13 848.349C1053.24 874.147 994.346 898.703 938.34 927.992C916.382 939.467 894.583 951.239 872.838 963.1C848.934 976.156 826.501 992.166 803.987 1007.47C752.3 1042.58 703.509 1081.7 654.587 1120.74C603.864 1161.24 552.378 1200.82 504.675 1245.49C457.938 1289.26 410.25 1331.8 361.915 1373.46C349.435 1384.22 337.37 1395.52 324.689 1406.13C311.911 1416.83 299.035 1427.41 286.092 1437.87C262.281 1457.15 237.872 1475.52 213.172 1493.52C203.152 1500.81 193.091 1508.03 182.946 1515.16" stroke="white" stroke-opacity="0.05" stroke-width="3.27711" stroke-miterlimit="10" stroke-linecap="round"/>
<path d="M1723.69 706.938C1675.44 733.259 1625.65 756.515 1574.41 777.288C1546.43 788.612 1518.17 799.377 1490.12 810.537C1462.51 821.511 1434.64 832.043 1405.94 840.682C1394.52 844.128 1382.79 846.756 1371.33 850.072C1360.03 853.355 1349.14 857.568 1338.03 861.277C1326.99 864.97 1315.77 868.235 1304.6 871.643C1290.25 876.026 1276.51 881.672 1262.18 886.099C1239.83 893.02 1217.5 899.813 1195.34 907.162C1173.48 914.421 1150.57 919.199 1128.66 926.433C1100.34 935.777 1072.96 946.976 1045.21 957.494C1015.59 968.701 986.208 980.424 957.202 992.829C928.746 1004.99 900.858 1018.05 873.45 1032.18C853.739 1042.31 834.052 1052.34 815.751 1064.86C795.109 1078.96 774.879 1093.81 755.656 1109.99C743.736 1120.01 731.922 1130.22 720.319 1140.66C714.323 1146.04 708.366 1151.49 702.48 1157.02C700.136 1159.21 697.779 1161.37 695.452 1163.55C692.583 1166.24 690.592 1169.36 688.096 1172.34C677.66 1184.77 664.955 1195.12 653.751 1206.68C643.226 1217.53 633.636 1230.41 622.037 1239.82C610.146 1249.46 600.118 1261.73 589.664 1273.23C578.976 1284.99 568.359 1296.83 557.825 1308.77C536.636 1332.82 516.394 1357.99 495.163 1382C491.014 1386.68 486.335 1390.38 481.925 1394.71C476.13 1400.43 471.03 1407.17 465.582 1413.31C455.024 1425.18 444.285 1436.82 433.406 1448.31C424.134 1458.08 415.581 1468.39 406.118 1477.89C394.856 1489.21 383.398 1500.32 371.79 1511.22C350.72 1531.01 328.882 1549.54 306.219 1567.15C296.658 1574.58 286.988 1581.87 277.098 1588.84" stroke="white" stroke-opacity="0.05" stroke-width="3.27711" stroke-miterlimit="10" stroke-linecap="round"/>
<path d="M1740.87 823.999C1695.04 849.236 1647.02 870.378 1597.53 888.631C1569.63 898.937 1541.21 908.072 1512.92 917.523C1485.99 926.542 1458.92 935.458 1431.35 943.107C1408.56 949.417 1384.9 953.35 1362.04 959.399C1339.05 965.494 1316.12 971.56 1292.93 977.142C1244.55 988.775 1197.05 1002.69 1148.21 1013.11C1092.85 1024.93 1040.22 1043.97 987.488 1061.86C933.882 1080.04 881.785 1100.88 831.709 1126.04C822.061 1130.89 812.042 1135.42 802.86 1141.11C793.341 1147.04 784.662 1154.66 776.015 1161.87C755.131 1179.28 735.88 1198.35 717.64 1219.08C698.016 1241.39 680.692 1265.6 663.016 1290.02C654.757 1301.42 647.701 1315.55 637.867 1325.12C627.54 1335.18 620.016 1349.26 611.913 1361.78C595.622 1386.97 579.91 1412.71 563.605 1437.87C555.678 1450.11 548.335 1463.8 538.239 1473.63C528.406 1483.2 521.351 1497.3 513.09 1508.73C495.415 1533.15 478.089 1557.36 458.466 1579.67C440.209 1600.41 420.958 1619.48 400.09 1636.88C391.38 1644.13 382.503 1651.18 373.245 1657.64" stroke="white" stroke-opacity="0.05" stroke-width="3.27711" stroke-miterlimit="10" stroke-linecap="round"/>
<path d="M1758.04 941.059C1715.56 964.53 1670.36 982.96 1623.64 998.091C1596.56 1006.87 1569.04 1014.6 1541.16 1021.53C1516.27 1027.73 1491.98 1035.41 1467 1041.47C1442.47 1047.42 1417.37 1051.74 1392.22 1056.04C1368.45 1060.09 1345.31 1065.92 1321.65 1070.27C1272.56 1079.27 1225.17 1092.72 1176.32 1102.37C1123.93 1112.71 1073.71 1128.8 1024.2 1145.99C972.983 1163.78 923.225 1184.65 876.527 1211.12C837.573 1233.2 802.349 1259.89 773.23 1295.62C755.254 1317.65 740.302 1342.02 724.882 1366.55C721.065 1372.64 717.305 1378.78 713.643 1385.02C709.704 1391.7 706.414 1399.4 701.967 1405.57C699.972 1408.37 697.452 1410.48 695.58 1413.44C693.624 1416.51 691.946 1419.9 690.146 1423.12C686.431 1429.84 682.773 1436.62 679.171 1443.46C665.177 1469.97 651.76 1496.9 637.198 1522.91C630.808 1534.32 624.163 1545.11 616.777 1555.46C608.694 1566.76 602.209 1579.99 594.615 1591.84C580.29 1614.22 566.193 1636.19 549.462 1656.09C533.769 1674.76 516.96 1691.74 498.265 1706.59C489.08 1713.89 479.581 1720.74 469.444 1726.59" stroke="white" stroke-opacity="0.05" stroke-width="3.27711" stroke-miterlimit="10" stroke-linecap="round"/>
<path d="M1780.37 1058.47C1739.62 1083.12 1694.14 1099.6 1647.19 1111.82C1622.47 1118.24 1597.23 1123.46 1571.73 1127.73C1545.26 1132.16 1519.09 1137.22 1492.01 1139.93C1444.8 1144.63 1397.11 1148.04 1349.69 1152.2C1325.57 1154.32 1301.39 1156.08 1277.34 1158.42C1254.08 1160.69 1230.4 1161.44 1207.3 1164.25C1154.07 1170.7 1101.36 1180.67 1051.02 1194.83C1027.32 1201.48 1004.26 1209.38 982.033 1219.2C960.862 1228.55 939.822 1238.59 921.362 1252.57C903.983 1265.74 887.942 1281.07 873.772 1298.32C857.067 1318.67 840.974 1340.52 828.747 1365.23C822.793 1377.29 815.491 1388.32 809.263 1400.18C802.944 1412.26 797.757 1425.61 790.984 1437.26C784.071 1449.15 778.103 1461.58 772.352 1474.55C766.531 1487.65 760.894 1500.91 755.402 1514.27C744.397 1541.05 732.18 1567 719.703 1592.59C714.172 1603.91 707.957 1614.64 702.225 1625.81C695.825 1638.33 689.155 1650.61 682.203 1662.61C656.501 1706.97 628.694 1748.52 591.267 1780.07C582.485 1787.45 573.318 1794.31 563.599 1800.27" stroke="white" stroke-opacity="0.05" stroke-width="3.27711" stroke-miterlimit="10" stroke-linecap="round"/>
<path d="M1814.33 1175.85C1774.32 1200.61 1727.56 1213.4 1679.37 1220.4C1630.49 1227.48 1579.57 1228.49 1528.07 1225.98C1503.22 1224.75 1478.37 1223.68 1453.44 1222.1C1425.93 1220.34 1398.13 1217.09 1370.6 1215.19C1346.59 1213.54 1322.46 1211.17 1298.51 1209.73C1272.44 1208.18 1246.82 1208.33 1221.27 1208.89C1171.64 1209.97 1122.36 1213.24 1077.04 1227.18C1054.43 1234.14 1032.13 1242.04 1013.82 1256.77C995.551 1271.49 979.074 1288.91 964.632 1308.3C902.484 1391.73 869.551 1502.49 829.201 1604.45C809.4 1654.43 786.831 1701.92 764.584 1749.93C753.811 1773.15 739.381 1794.14 724.871 1813.81C711.687 1831.67 697.119 1847.98 680.97 1862.35C671.958 1870.36 662.447 1877.73 652.368 1884.21" stroke="white" stroke-opacity="0.05" stroke-width="3.27711" stroke-miterlimit="10" stroke-linecap="round"/>
<path d="M794.932 1920.92C761.277 1866.86 719.822 1822.8 673.144 1784.53C627.38 1747.01 579.61 1713.2 531.858 1680.93C507.296 1664.33 483.322 1645.64 460.114 1625.7C449.259 1616.37 438.773 1606.38 427.915 1597.08C416.002 1586.87 404.235 1576.36 392.711 1565.46C371.786 1545.68 350.205 1527.11 329.473 1506.99C307.538 1485.73 285.995 1463.93 264.812 1441.6C242.35 1417.93 219.881 1392.99 199.884 1366.54C181.209 1341.86 162.74 1316.48 146.628 1289.73C113.746 1235.11 94.5407 1172.12 79.2134 1113.19C63.3369 1052.15 53.0923 991.578 43.3249 930.931C38.8546 903.207 34.1423 875.266 28.4036 847.435C22.3788 818.202 15.041 789.041 7.55628 759.818C-22.4191 642.615 -64.6912 525.237 -125.056 414.762C-132.785 400.61 -140.752 386.571 -148.878 372.631" stroke="white" stroke-opacity="0.05" stroke-width="3.27711" stroke-miterlimit="10" stroke-linecap="round"/>
<path d="M844.356 1838.68C828.757 1813.92 811.459 1790.1 791.734 1769.16C772.094 1748.29 749.837 1730.98 727.684 1715.07C715.361 1706.24 702.822 1698.02 690.274 1689.93C678.899 1682.58 668.768 1674.68 657.289 1667.7C632.836 1652.82 608.28 1638.1 584.085 1622.25C561.134 1607.21 539.533 1590.66 518.708 1570.75C508.467 1560.95 499.549 1549.95 489.962 1539.36C480.151 1528.5 470.03 1518.33 460.664 1506.84C442.03 1483.99 422.39 1462.15 404.14 1438.85C385.462 1415 366.87 1391 348.896 1366.5C313.261 1317.95 279.542 1264.9 254.355 1210.23C241.57 1182.51 233.443 1153.34 225.48 1124.81C217.541 1096.35 210.825 1067.99 204.997 1039.55C193.685 984.299 186.364 929.318 179.541 874.58C172.828 820.595 161.221 766.983 142.101 712.858C122.782 658.155 96.8651 604.26 66.322 553.762C58.7542 541.24 51.7809 528.508 44.3861 515.911C36.587 502.65 27.8478 490.145 19.424 477.295C3.70246 453.336 -13.0349 430.116 -28.6741 406.077C-37.1579 393.021 -45.386 379.811 -53.1837 366.337" stroke="white" stroke-opacity="0.05" stroke-width="3.27711" stroke-miterlimit="10" stroke-linecap="round"/>
<path d="M882.926 1746.94C868.334 1723.5 852.271 1700.6 833.34 1681.18C815.619 1662.99 795.056 1648.71 774.918 1636.21C729.927 1608.29 683.771 1587.53 638.283 1561.92C616.718 1549.77 594.25 1535.74 575.553 1516.24C565.459 1505.71 556.087 1494.5 547.97 1482.01C539.81 1469.49 530.428 1458.01 522.512 1445.27C514.987 1433.18 508.544 1420.67 500.622 1408.79C492.946 1397.27 485.762 1385.28 478.916 1373.25C471.238 1359.8 464.329 1346.03 456.556 1332.63C448.942 1319.53 441.804 1306.17 434.632 1292.86C406.262 1240.22 380.718 1184.85 362.416 1129.19C357.696 1114.85 355.352 1099.84 352.369 1085.43C349.435 1071.17 346.65 1056.95 344.018 1042.72C338.869 1014.93 334.635 987.302 330.779 959.688C323.72 909.158 320.593 859.476 315.378 809.278C310.05 757.996 300.971 706.089 277.605 655.157C265.988 629.818 251.53 605.241 234.841 582.782C231.141 577.789 227.127 573.322 223.143 568.653C219.047 563.872 215.676 558.344 211.89 553.282C203.366 541.92 193.338 533.476 184.108 523.18C175.087 513.121 165.576 503.512 156.409 493.573C146.092 482.393 134.968 472.797 124.11 462.523C105.891 445.273 87.2028 428.763 70.7165 408.97C61.6668 398.109 53.3336 386.448 46.0687 374.136" stroke="white" stroke-opacity="0.05" stroke-width="3.27711" stroke-miterlimit="10" stroke-linecap="round"/>
<path d="M916.569 1651.42C903.01 1629.18 888.182 1607.01 870.02 1589.03C852.14 1571.33 830.8 1559.01 810.445 1548.71C764.003 1525.19 716.705 1511.5 670.333 1487.09C647.935 1475.3 627.614 1460.84 610.483 1438.2C601.841 1426.79 595.847 1415.34 589.543 1402.59C583.674 1390.7 577.33 1379.43 572.822 1367.05C570.469 1360.57 568.585 1354.1 566.107 1347.67C563.4 1340.64 560.098 1333.86 557.176 1326.88C551.805 1314.05 547.122 1300.98 543.032 1287.92C534.679 1261.25 524.574 1234.84 516.104 1208.13C507.453 1180.8 499.125 1153.25 491.486 1125.82C483.811 1098.25 476.136 1069.72 473.149 1042.46C467.23 988.234 462.43 934.265 458.364 880.424C454.523 829.57 455.556 780.142 451.377 729.13C447.396 680.454 435.409 627.439 406.183 581.687C399.272 570.887 390.78 560.476 382.086 551.491C373.293 542.416 363.977 533.02 354.155 525.846C349.594 522.53 345.061 520.047 340.761 516.117C336.306 512.04 331.695 508.21 326.907 504.88C322.324 501.669 317.615 498.899 312.844 496.53C306.931 493.614 301.455 490.553 295.616 487.258C285.584 481.606 275.66 475.525 265.609 469.915C253.957 463.401 242.154 458.434 230.42 452.576C210.023 442.416 189.281 433.771 170.6 416.984C161.395 408.705 153.101 398.868 146.354 387.908" stroke="white" stroke-opacity="0.05" stroke-width="3.27711" stroke-miterlimit="10" stroke-linecap="round"/>
<path d="M950.233 1555.94C936.387 1533.08 921.132 1509.56 901.335 1492.67C897.401 1489.3 893.327 1486.39 889.11 1483.74C886.112 1481.84 882.252 1480.46 879.465 1478.19C878.151 1477.11 878.436 1476.57 877.277 1475.64C872.155 1471.54 864.718 1469.25 859.205 1466.85C852.737 1464.03 846.26 1461.52 839.76 1459.11C817.244 1450.79 794.302 1443.85 771.856 1437.76C748.607 1431.43 723.417 1424.68 700.442 1411.9C691.963 1407.18 682.912 1401.42 674.893 1394.69C664.664 1386.1 657.176 1375.68 650.024 1363.87C642.658 1351.68 639.244 1338.72 634.614 1325.74C630.226 1313.38 627.455 1300.93 625.982 1288.61C622.911 1263.21 616.497 1237.62 614.171 1212.22C611.618 1184.27 606.31 1156.18 603.44 1128.21C600.603 1100.4 596.898 1072.6 594.248 1044.92C592.764 1029.41 591.311 1013.89 589.693 998.35C588.104 983.214 588.105 968.748 587.96 954.006C587.453 899.361 587.752 845.103 587.157 790.421C586.866 763.485 589.872 737.723 589.838 710.813C589.83 698.99 589.285 687.039 588.981 675.124C588.658 662.28 586.714 649.362 585.685 636.402C582.052 590.486 559.126 531.158 520.231 500.096C510.716 492.492 500.209 486.492 490.061 481.154C480.716 476.235 471.344 474.215 461.961 469.987C440.537 460.332 420.395 459.6 399.22 454.948C388.909 452.681 378.317 449.918 367.525 448.369C355.216 446.592 342.929 445.105 330.606 443.307C310.768 440.418 290.283 438.621 270.433 425.731C261.333 419.814 253.012 411.693 246.592 401.808" stroke="white" stroke-opacity="0.05" stroke-width="3.27711" stroke-miterlimit="10" stroke-linecap="round"/>
<path d="M988.797 1464.19C976.884 1444.03 963.989 1422.81 947.085 1407.21C929.601 1391.06 908.205 1383.39 888.835 1378C877.842 1374.94 866.927 1372.61 856.009 1370.53C846.753 1368.78 836.825 1366.28 828.148 1366.26C823.026 1366.26 816.999 1364.41 811.733 1363.53C805.431 1362.49 799.121 1361.33 792.782 1359.98C781.852 1357.66 770.78 1354.83 759.777 1351.1C740.542 1344.57 718.461 1333.59 704.757 1312.61C698.21 1302.59 692.946 1290.55 690.426 1279.38C687.996 1268.61 685.507 1257.41 684.642 1246.84C683.662 1234.82 684.358 1223.54 685.196 1212.17C686.01 1201.12 685.401 1189.61 685.905 1178.44C686.943 1155.12 690.66 1132.93 692.156 1109.79C693.736 1085.56 695.07 1061.19 696.897 1036.72C698.728 1012.4 700.21 987.873 701.276 963.234C701.833 950.005 702.185 936.688 702.211 923.267C702.235 910.06 703.858 897.394 704.99 884.603C707.084 861.005 709.06 837.359 710.994 813.677C712.904 790.281 714.55 766.775 716.019 743.194C717.456 720.421 719.588 698.104 721.643 675.591C725.467 634.046 728.208 590.582 718.822 545.352C713.816 521.2 705.069 498.054 690.934 476.161C677.531 455.429 661.582 440.647 641.804 431.322C622.056 422.01 603.609 420.183 584.44 418.282C575.405 417.39 566.567 416.319 557.767 416.709C548.129 417.126 539.09 419.208 529.591 419.995C524.757 420.394 520.064 421.132 515.303 421.759C512.799 422.103 510.251 422.231 507.709 422.476C507.157 422.54 503.726 423.266 506.157 422.694C475.634 426.258 446.286 433.474 415.429 436.059C394.072 437.857 363.997 436.234 345.921 409.525" stroke="white" stroke-opacity="0.05" stroke-width="3.27711" stroke-miterlimit="10" stroke-linecap="round"/>
<path d="M1038.22 1381.95C1024.35 1358.84 1008.66 1332.74 986.817 1318.88C963.801 1304.28 938.104 1301.29 915.265 1299.08C890.132 1296.66 865.615 1296.86 840.459 1294.15C817.776 1291.69 791.856 1287.87 769.746 1270.63C744.64 1251.06 739.973 1219.99 740.067 1193.19C740.11 1180.12 742.469 1167.58 745.063 1155.72C748.014 1142.21 750.998 1128.66 754.326 1115.38C761.094 1088.35 769.865 1062.54 777.027 1035.73C784.428 1007.98 791.289 979.569 797.431 951.017C821.345 839.753 836.742 723.673 852.463 608.123C859.283 557.958 866.074 502.685 845.703 446.076C836.579 420.734 818.536 393.217 797.542 377.446C775.229 360.66 749.404 355.991 727.135 356.222C680.045 356.662 639.548 374.738 598.955 391.113C575.448 400.621 552.118 410.779 527.648 418.204C508.719 423.951 486.11 430.121 463.56 421.061C455.306 417.752 447.419 411.885 441.66 403.264" stroke="white" stroke-opacity="0.05" stroke-width="3.27711" stroke-miterlimit="10" stroke-linecap="round"/>
<path d="M1105.22 1319.82C1090.73 1296.05 1074.28 1268.71 1051.2 1255.76C1022.61 1239.71 991.151 1241.08 964.098 1241.65C935.919 1242.24 908.096 1245.1 878.955 1241.45C854.571 1238.39 821.462 1228.88 807.518 1196.53C795.364 1168.34 801.928 1140.22 808.422 1117.31C816.314 1089.51 827.546 1064.1 838.671 1038.7C862.973 983.215 886.673 927.279 905.634 867.772C924.456 808.683 937.378 745.911 950.617 683.372C962.603 626.782 974.576 569.957 982.931 511.396C990.133 460.816 996.056 399.127 964.094 343.428C947.725 314.89 922.821 292.131 896.259 282.483C869.093 272.598 842.483 275.294 818.74 281.184C770.202 293.213 728.924 320.134 687.061 344.835C663.628 358.665 640.066 372.786 614.447 382.671C595.722 389.901 572.454 397.898 549.355 389.839C541.039 386.932 533.007 381.185 527.534 372.207" stroke="white" stroke-opacity="0.05" stroke-width="3.27711" stroke-miterlimit="10" stroke-linecap="round"/>
<path d="M1191.14 1288.74C1176.4 1264.99 1160.12 1238.43 1137.22 1224.92C1110.96 1209.41 1082.08 1206.48 1056.03 1203.05C1031.76 1199.86 1007.4 1198.06 982.684 1191.05C958.787 1184.26 930.699 1172.15 918.291 1141.74C907.083 1114.27 913.348 1086.1 918.894 1063.25C925.176 1037.4 934.274 1013.45 943.066 989.314C952.649 963.031 962.77 937.058 971.575 910.217C980.383 883.346 986.718 854.857 995.218 827.839C1003.88 800.298 1007.75 768.702 1011.51 738.389C1015.27 708.045 1021.75 678.947 1026.67 649.172C1031.05 622.541 1035.31 595.925 1037.49 568.238C1038.58 554.443 1039.34 540.544 1039.93 526.538C1040.22 519.571 1041.07 512.895 1041.68 506.064C1042.34 498.683 1041.99 491.136 1042.46 483.722C1045.78 433.566 1045.43 373.215 1014.89 321.107C999.781 295.318 977.335 275.154 953.563 264.231C929.365 253.112 904.532 252.297 882.3 255.174C833.658 261.504 791.274 282.337 748.173 301.06C725.977 310.708 703.694 319.712 680.419 327.016C661.787 332.854 638.317 338.185 616.085 328.749C607.758 325.212 599.943 318.997 594.486 310.01" stroke="white" stroke-opacity="0.05" stroke-width="3.27711" stroke-miterlimit="10" stroke-linecap="round"/>
<path d="M1286.88 1282.48C1272.59 1259.8 1257.13 1234.25 1236.42 1218.52C1212.64 1200.47 1185.37 1191.93 1160.24 1183.38C1137.13 1175.51 1113.6 1167.32 1090.72 1155.42C1067.17 1143.21 1043.68 1125.9 1034.29 1096.27C1025.94 1069.93 1030.44 1043.32 1034.71 1020.61C1039.51 995.122 1046.31 970.446 1053 946.073C1067.67 892.7 1082.67 839.4 1091.32 782.476C1095.66 753.839 1098.81 724.568 1100.37 694.681C1101.91 665.571 1104.56 636.932 1106.09 607.821C1107.47 581.687 1108.19 555.29 1106.66 528.196C1105.85 514.012 1104.64 499.708 1102.75 485.301C1101.04 472.152 1101.6 459.435 1101.07 446.504C1099.98 420.694 1096.1 394.882 1091.23 368.466C1086.42 342.406 1075 313.06 1060.34 289.216C1028.11 236.775 975.154 218.011 930.889 218.489C884.037 218.996 842.043 231.888 798.447 241.723C774.933 247.019 751.493 252.15 727.355 255.704C708.568 258.452 685.982 259.634 665.316 248.242C657.052 243.697 649.472 236.792 643.97 227.802" stroke="white" stroke-opacity="0.05" stroke-width="3.27711" stroke-miterlimit="10" stroke-linecap="round"/>
<path d="M1386.1 1290.23C1371.31 1266.55 1355.98 1240.11 1335.89 1221.36C1315.48 1202.35 1292.39 1188.52 1269.89 1175.16C1263.89 1171.6 1256.96 1168.39 1251.28 1163.85C1250.3 1163.05 1249.21 1161.63 1247.87 1160.68C1245.56 1159.06 1243.11 1157.58 1240.76 1156.1C1228.03 1148.15 1216.08 1139.63 1203.93 1130C1182.47 1112.96 1162.88 1091.81 1154.86 1063.83C1147.4 1037.77 1149.55 1011.65 1152.09 988.058C1154.83 962.398 1159.53 937.302 1163.89 912.472C1173.51 857.694 1183.78 803.424 1188.71 746.282C1193.71 688.431 1194.03 628.397 1189.51 567.375C1187.58 541.346 1184.25 514.989 1179.32 488.485C1176.6 473.795 1173.31 459.03 1169.21 444.301C1167.6 438.493 1165.24 432.438 1164.17 426.661C1162.73 418.954 1161.74 411.038 1160.74 403.368C1158.89 389.091 1155.61 374.497 1151.12 360.129C1149.34 354.45 1147.23 348.856 1145.08 343.25C1142.69 337.002 1141.38 330.646 1139.33 324.31C1135.09 311.216 1128.55 298.615 1122.58 285.995C1116.41 272.894 1108.68 260.108 1100.11 248.411C1065.97 201.806 1017.6 181.34 973.604 176.193C952.442 173.717 930.874 171.975 910.418 172.738C888.286 173.552 866.533 175.743 844.259 176.038C818.7 176.364 793.442 177.506 767.444 175.856C747.418 174.597 726.228 172.865 705.848 159.753C696.875 153.971 688.667 145.964 682.522 136.062" stroke="white" stroke-opacity="0.05" stroke-width="3.27711" stroke-miterlimit="10" stroke-linecap="round"/>
<path d="M1486.4 1304.06C1471.64 1279.84 1457.37 1254.42 1439.85 1232.22C1435.45 1226.66 1430.24 1222.34 1425.63 1217.09C1420.8 1211.57 1415.8 1205.91 1410.28 1200.58C1399.82 1190.46 1389.15 1180.85 1378.41 1171.24C1373.58 1166.9 1367.83 1162.58 1363.5 1157.52C1361.55 1155.25 1360.91 1153.64 1358.85 1151.37C1356.25 1148.5 1353.24 1145.94 1350.47 1143.35C1339.47 1133.1 1329.56 1122.1 1319.52 1110.57C1301.38 1089.79 1285.84 1066.63 1278.35 1040.13C1271.01 1014.13 1271.33 988.273 1271.96 963.811C1272.65 936.645 1275.65 910.158 1277.79 883.556C1280.01 856 1283.41 828.876 1284.81 800.973C1286.25 772.102 1287.19 743.053 1287.15 713.659C1287.09 656.161 1277.39 597.022 1268.23 537.733C1264.14 511.321 1258.39 484.833 1250.8 458.28C1246.58 443.48 1241.93 428.752 1236.41 414.1C1231.45 400.931 1223.73 387.227 1220.34 374.011C1216.65 359.638 1212.38 345.199 1206.81 331.035C1201.77 318.213 1195.09 306.638 1189 294.277C1185.89 287.954 1183.78 281.232 1180.58 274.84C1177.4 268.502 1173.76 262.35 1170.02 256.321C1162.63 244.417 1155.92 232.34 1147.43 221.203C1130.17 198.604 1110.47 178.527 1088.49 163.114C1065.86 147.247 1040.89 137.81 1017.21 130.986C1005.69 127.667 994.307 125.934 982.815 123.022C971.398 120.126 960.046 117.766 948.757 116.156C924.271 112.643 900.112 110.78 875.505 106.492C850.371 102.131 825.411 98.2701 800.142 92.3231C779.842 87.5626 758.818 81.3637 739.574 66.3454C730.676 59.3957 722.597 50.7023 716.226 40.5744" stroke="white" stroke-opacity="0.05" stroke-width="3.27711" stroke-miterlimit="10" stroke-linecap="round"/>
<path d="M1586.71 1317.91C1570.91 1291.73 1556.32 1264.68 1539.72 1239.01C1536.13 1233.46 1532.07 1228.27 1528.08 1223.06C1523.81 1217.47 1520.04 1211.16 1515.7 1205.37C1506.84 1193.55 1497.95 1181.8 1488.93 1170.13C1484.19 1164.01 1479.52 1157.82 1474.98 1151.52C1471.6 1146.85 1469.62 1142.05 1466.21 1137.31C1457.11 1124.69 1448.04 1112.36 1439.91 1098.99C1425.22 1074.77 1411.89 1051.33 1403.88 1024.66C1395.4 996.352 1394.05 968.608 1392.78 941.263C1391.47 912.647 1392.56 884.747 1392.58 856.56C1392.58 798.757 1392.97 741.468 1387.75 682.175C1385.09 651.955 1380.97 621.981 1373.69 591.213C1370.12 576.1 1366.03 561 1361.45 545.934C1359.23 538.672 1356.91 531.414 1354.46 524.171C1351.81 516.297 1350.38 508.367 1348.45 500.45C1334.79 444.725 1312.67 387.268 1282.48 335.586C1279.38 330.287 1277.24 324.767 1274.79 319.165C1271.91 312.611 1268.56 306.402 1265.48 299.942C1258.86 286.026 1251.12 272.577 1242.49 259.758C1234.03 247.205 1226.84 233.937 1217.99 221.649C1210.06 210.651 1202.14 199.313 1193.66 188.838C1174.72 165.447 1153.61 145.256 1130.84 127.867C1108.39 110.71 1084.34 98.8645 1060.46 88.3719C1048.79 83.2322 1037.17 79.1827 1025.46 75.16C1014.06 71.2514 1002.7 66.3529 991.293 62.508C967.049 54.329 942.827 48.9875 918.579 40.659C892.183 31.6077 865.353 23.0637 839.058 11.5556C817.084 1.93167 795.166 -7.81692 775.132 -25.5681C765.649 -33.9806 756.962 -43.8496 749.846 -54.9486" stroke="white" stroke-opacity="0.05" stroke-width="3.27711" stroke-miterlimit="10" stroke-linecap="round"/>
<path d="M1685.94 1325.66C1669.72 1298.7 1654.99 1270.95 1640.26 1243.2C1633.65 1230.73 1626.42 1218.4 1619.35 1206.27C1611.04 1192.02 1602.94 1177.66 1594.75 1163.34C1591.03 1156.84 1587.41 1150.28 1583.86 1143.68C1582.18 1140.52 1580 1137.06 1578.65 1133.76C1578.15 1132.55 1577.49 1131.1 1577.41 1129.93C1577.35 1129.12 1577.92 1127.74 1577.85 1127.27C1577.28 1122.25 1571.58 1113.9 1568.78 1108.45C1565 1101.1 1561.42 1093.68 1558.01 1086.2C1545.43 1058.66 1534.01 1031.13 1526.35 1002.66C1510.65 944.35 1511.12 887.171 1507.38 830.737C1503.54 772.815 1500.65 715.227 1492.4 656.354C1483.91 595.804 1470.91 534.434 1447.36 474.058C1435.5 443.651 1423.95 413.754 1408.37 384.462C1393.53 356.567 1377.15 328.913 1358.95 303.102C1350.18 290.702 1341.52 278.67 1333.21 265.934C1324.58 252.721 1315.72 239.687 1305.96 227.377C1287.23 203.733 1267.79 180.919 1247.67 158.824C1226.45 135.513 1203.26 114.955 1179.37 96.3706C1155.84 78.0839 1131.36 63.9217 1106.52 50.3451C1057.35 23.5423 1007.23 3.63303 957.868 -21.6885C932.043 -34.9388 905.913 -48.5794 880.559 -64.1795C857.468 -78.3997 834.687 -93.2625 814.321 -114.178C804.778 -123.98 795.99 -134.879 788.456 -146.663" stroke="white" stroke-opacity="0.05" stroke-width="3.27711" stroke-miterlimit="10" stroke-linecap="round"/>
<path d="M1781.67 1319.4C1748.47 1264.25 1722.77 1204.76 1698.73 1146.08C1695.75 1138.82 1692.9 1131.56 1690.12 1124.27C1687.86 1118.34 1684.48 1111.46 1683.55 1105.41C1681.49 1091.81 1674.42 1076.58 1669.86 1062.56C1660.03 1032.4 1651.28 1002.11 1644.8 971.812C1631.82 911.063 1627.12 851.118 1621.04 791.381C1618.06 762.198 1613.85 732.623 1610.16 703.271C1606.48 674.09 1601.31 644.821 1595.83 615.438C1592.88 599.583 1589.64 583.701 1586.01 567.807C1584.4 560.751 1582.76 553.714 1580.89 546.664C1578.64 538.207 1574.95 529.994 1572.67 521.651C1564.48 491.823 1554.27 461.897 1541.83 432.757C1516.17 372.726 1475.9 317.638 1433.9 268.569C1423.33 256.212 1412.16 244.641 1401.46 232.479C1390.92 220.497 1381.63 208.055 1370.68 196.476C1349.72 174.342 1327.67 153.573 1305.57 133.228C1258.09 89.5089 1208.26 52.0704 1156.35 19.2968C1106.37 -12.2553 1055.45 -41.3255 1006.03 -74.7958C957.503 -107.691 906.486 -143.707 865.525 -191.585C855.523 -203.291 846.186 -215.735 837.83 -228.868" stroke="white" stroke-opacity="0.05" stroke-width="3.27711" stroke-miterlimit="10" stroke-linecap="round"/>
<path d="M727.94 1983.05C659.453 1870.7 555.713 1789.52 458.418 1718.48C358.118 1645.24 254.162 1579.14 158.668 1494.14C112.227 1452.82 67.6475 1406.33 31.5408 1352.52C-4.75715 1298.43 -30.1478 1238.36 -48.633 1178.03C-86.3476 1054.8 -98.7589 931.232 -116.421 809.314C-134.84 682.277 -157.754 530.167 -234.854 403.691C-144.323 348.504 -15.2075 365.086 94.7751 380.472C199.781 395.162 307.848 416.812 408.106 407.738C457.102 403.316 503.825 390.392 541.904 362.569C580.049 334.675 608.955 294.248 632.607 250.047C681.044 159.591 709.961 53.3747 746.584 -46.1958C781.746 -141.843 824.308 -241.972 904.803 -291.042C981.768 -164.786 1106.15 -74.8357 1211.09 0.0632755C1311.39 71.6408 1415.54 139.286 1507.78 229.24C1552.94 273.282 1594.7 323.403 1626.15 380.447C1657.44 437.194 1678.32 498.129 1693.79 558.331C1725.59 682.155 1736.74 804.832 1755.87 927.551C1774.45 1046.58 1799.09 1176.01 1867.57 1288.33C1787.07 1337.4 1678.56 1329.34 1577.44 1316.8C1472.16 1303.73 1364.49 1280.78 1261.9 1282.39C1211.76 1283.17 1162.59 1290.33 1120.33 1311.46C1078.13 1332.57 1045.27 1368.2 1018.88 1409.7C964.879 1494.66 934.6 1600.61 899.564 1700.7C863.315 1804.26 818.869 1927.62 727.94 1983.05Z" stroke="white" stroke-opacity="0.05" stroke-width="3.27711" stroke-miterlimit="10" stroke-linecap="round"/>
</g>
<defs>
<clipPath id="clip0_236_3559">
<rect width="1868.62" height="1849.69" fill="white" transform="translate(-462.779 542.634) rotate(-31.3664)"/>
</clipPath>
</defs>
</svg>
